<svg id="_2Odnoklassniki.svg" data-name="2Odnoklassniki.svg" xmlns="http://www.w3.org/2000/svg" width="40" height="40" viewBox="0 0 40 40">
  <defs>
    <style>
      .cls-1 {
        fill: #ee8108;
      }

      .cls-2 {
        fill: #fff;
        fill-rule: evenodd;
      }
    </style>
  </defs>
  <rect id="Rectangle_1_copy_5" data-name="Rectangle 1 copy 5" class="cls-1" width="40" height="40"/>
  <path id="Odnoklassniki" class="cls-2" d="M1930.49,115.255a4.131,4.131,0,1,0-4.01-4.128A4.078,4.078,0,0,0,1930.49,115.255Zm0-5.838a1.71,1.71,0,1,1-1.66,1.71A1.693,1.693,0,0,1,1930.49,109.417Zm1.63,9.207a7.525,7.525,0,0,0,2.33-.993,1.237,1.237,0,0,0,.37-1.669,1.165,1.165,0,0,0-1.63-.38,4.969,4.969,0,0,1-5.4,0,1.155,1.155,0,0,0-1.62.38,1.237,1.237,0,0,0,.37,1.669,7.448,7.448,0,0,0,2.33.993l-2.24,2.308a1.233,1.233,0,0,0,0,1.711,1.15,1.15,0,0,0,1.66,0l2.2-2.268,2.21,2.268a1.148,1.148,0,0,0,1.66,0,1.233,1.233,0,0,0,0-1.711Z" transform="translate(-1910 -95)"/>
</svg>

