<svg id="_2Telegram.svg" data-name="2Telegram.svg" xmlns="http://www.w3.org/2000/svg" width="40" height="40" viewBox="0 0 40 40">
  <defs>
    <style>
      .cls-1 {
        fill: #2ca5e0;
      }

      .cls-2 {
        fill: #fff;
        fill-rule: evenodd;
      }
    </style>
  </defs>
  <rect id="Rectangle_1_copy_11" data-name="Rectangle 1 copy 11" class="cls-1" width="40" height="40"/>
  <path id="Telegram" class="cls-2" d="M2236.84,108.128l-15.22,6.019c-0.83.251-.8,1.11-0.19,1.316l3.82,1.243,1.46,4.673c0.17,0.511.32,0.7,0.62,0.708a1,1,0,0,0,.77-0.422c0.39-.38.98-0.977,1.91-1.923l3.97,3.061c0.73,0.42,1.26.2,1.44-.708l2.48-12.849C2238.17,108.13,2237.54,107.8,2236.84,108.128Zm-10.99,8.293,8.67-5.682c0.42-.3.56,0.035,0.36,0.266l-7.19,6.76-0.37,3.374Z" transform="translate(-2210 -95)"/>
</svg>

