<svg id="_2Vk.svg" data-name="2Vk.svg" xmlns="http://www.w3.org/2000/svg" width="40" height="40" viewBox="0 0 40 40">
  <defs>
    <style>
      .cls-1 {
        fill: #4d76a2;
      }

      .cls-2 {
        fill: #fff;
        fill-rule: evenodd;
      }
    </style>
  </defs>
  <rect class="cls-1" width="40" height="40"/>
  <path id="Vk" class="cls-2" d="M1679.7,110a4.848,4.848,0,0,0-2,.218c-0.28.144-.49,0.47-0.36,0.486a1.1,1.1,0,0,1,.72.391,2.747,2.747,0,0,1,.23,1.179s0.14,2.25-.33,2.533c-0.33.192-.77-0.2-1.73-1.988a16.412,16.412,0,0,1-.85-1.937,0.736,0.736,0,0,0-.2-0.288,1.015,1.015,0,0,0-.37-0.163l-2.29.015a0.731,0.731,0,0,0-.46.174,0.542,0.542,0,0,0-.01.44,28.986,28.986,0,0,0,3.81,6.832,5.265,5.265,0,0,0,3.97,1.962h0.96a0.751,0.751,0,0,0,.43-0.2,0.808,0.808,0,0,0,.14-0.456s-0.02-1.391.57-1.6,1.34,1.347,2.14,1.942a1.419,1.419,0,0,0,1.06.352l2.14-.035a0.645,0.645,0,0,0,.58-1.029,7.427,7.427,0,0,0-1.58-1.993c-1.34-1.347-1.16-1.129.45-3.462,0.98-1.422,1.38-2.29,1.25-2.666a0.885,0.885,0,0,0-.84-0.258l-2.4.015a0.514,0.514,0,0,0-.31.06,0.7,0.7,0,0,0-.21.282,17.35,17.35,0,0,1-.89,2.036c-1.07,1.971-1.5,2.08-1.68,1.957-0.4-.288-0.3-1.15-0.3-1.759,0-1.917.27-2.71-.52-2.918a3.745,3.745,0,0,0-1.12-.119h0Zm0,0" transform="translate(-1660 -95)"/>
</svg>

