<svg xmlns="http://www.w3.org/2000/svg" width="64" height="64" viewBox="0 0 64 64"><path d="M38.625 35.61l-1.564-3.017a8.197 8.197 0 0 0 2.989-6.332V21.01a24.868 24.868 0 0 0 1.648-.506.502.502 0 0 0 .334-.482 10.279 10.279 0 0 0-7.741-9.678 1.928 1.928 0 0 0-1.883-1.528h-1.135a1.928 1.928 0 0 0-1.882 1.528 10.278 10.278 0 0 0-7.742 9.679.5.5 0 0 0 .334.481c.53.187 1.085.35 1.648.506v5.252a8.196 8.196 0 0 0 2.99 6.332l-1.602 3.09c-5.535 1.158-8.966 3.556-8.966 6.292V52.54a.5.5 0 0 0 .5.5h30.894a.5.5 0 0 0 .5-.5V41.975c0-2.809-3.568-5.238-9.322-6.365zm2.393-15.93a28.284 28.284 0 0 1-6.73 1.292 2.48 2.48 0 0 0 .045-.448v-9.14a9.282 9.282 0 0 1 6.685 8.296zm-10.67-8.939a.927.927 0 0 1 .925-.926h1.135a.927.927 0 0 1 .925.926v9.783a1.492 1.492 0 1 1-2.985 0v-9.783zm-1 .644v9.14a2.48 2.48 0 0 0 .045.447 28.27 28.27 0 0 1-6.729-1.292 9.281 9.281 0 0 1 6.684-8.295zM24.631 26.26v-5.007a30.946 30.946 0 0 0 5.223.76 2.468 2.468 0 0 0 3.973 0 30.946 30.946 0 0 0 5.223-.76v5.007a7.197 7.197 0 0 1-2.954 5.806 7.276 7.276 0 0 1-8.513-.001 7.197 7.197 0 0 1-2.952-5.805zm2.81 6.923c.015.01.033.016.049.026a8.185 8.185 0 0 0 .973.525l.006.003a8.125 8.125 0 0 0 6.743 0l.009-.004a8.203 8.203 0 0 0 .967-.522l.053-.028 1.444 2.786-5.844 4.243-5.845-4.243zM17.052 52.04V41.975c0-1.812 2.166-3.538 5.703-4.671l7.593 5.513v9.224H17.053zm14.296 0v-9.733l-7.373-5.354q.613-.16 1.267-.297l6.598 4.792 6.667-4.842q.66.131 1.279.288l-7.454 5.413v9.733h-.984zm15.598 0H33.332v-9.224l7.686-5.58c3.635 1.132 5.93 2.908 5.93 4.738V52.04z"/></svg>