<svg width="1275" height="470" viewBox="0 0 1275 470" fill="none" xmlns="http://www.w3.org/2000/svg">
<path fill-rule="evenodd" clip-rule="evenodd" d="M402.5 40.5H404.5L536 41L544.5 41.5L549 42.5L554 44L557.5 45L561 46L564.5 47L569.5 49L574.5 51L578 53L581.5 55L585.5 57.5L589 60L592.5 62.5L595 65L598 68L601 72.5L604 77L607 81.5L609.5 87.5L612 94L613.5 103.5L614.5 113L614 128.5L613 133L612 136L610 141L608 145L606 148.5L604 151L601 155L599 157.5L597 159.5L595 161.5L593 163.5L590 166L584.5 170V174L592 178.5L595.5 180.5L599.5 183.5L604 187L607 190.5L610 193.5L612 196.5L614 199.5L616 202.5L618 206.5L620 211.5L621 214.5L622 218.5L623 223.5V250L622 257.5L620 265.5L618 271.5L616 276.5L614 280.5L611 285.5L607.5 290L604 294.5L600 298.5L594 303L588 307L580.5 311L570.5 314.5L561 317L550 319L542 320L401.5 320.5L400 319.5L399 318.5L398 317.5L397 315.5L396.5 313L396 47.5L397 44.5L398 43.5L399 42.5L400.5 41.5L402.5 40.5ZM479.5 210H525L528.5 211L530 211.5L532 213L534.5 214.5L537.5 217L540 221L541.5 223L542.5 227.5V236L540.5 240L538.5 242.5L536.5 244.5L534.5 246L532.5 247.5L530 249L528 249.5L480.5 250L478 249.5L475.5 248L474 246.5L473 245.5L472.5 244V217C472.5 217 472.696 215.746 473 215C473.165 214.596 473.263 214.367 473.5 214C473.792 213.549 474.09 213.298 474.423 213.018C474.603 212.866 474.794 212.706 475 212.5C475.137 212.363 475.249 212.242 475.355 212.128C475.551 211.918 475.726 211.73 476 211.5C476.539 211.047 477.5 210.5 477.5 210.5C477.5 210.5 478.074 210.095 478.5 210C478.881 209.915 479.5 210 479.5 210ZM480 146.5H517.5L521.5 146L523.5 145L525.5 143.5L527 142.5L528.5 141L530.5 139L532.5 135.5V123.5V122L531.5 120.5L530.5 118.5L529 117L528.5 116.5L527 115L525.5 114L524.5 113L522.5 112L520 111H482.5H479L477.5 111.5L476 112.5L475 113.5L473.5 115.5L473 116.5L472.5 118.5V139L473 141L473.5 142.5L474.5 143.5L476 145L478 146.5H480Z" fill="#012D5B" stroke="#012D5B"/>
<path fill-rule="evenodd" clip-rule="evenodd" d="M248.5 41.5H188.5L184 43.5L181 46.5L178 51.5L172.5 64L68 307.5V311V314.5L69.5 317L71.5 319L74.5 320.5H144.5L149.5 319L152.5 317L154.5 314.5L166.5 287.5L168.5 285L171 283L174 281.5H261.5L265.5 283L269 285L271 287.5L274 293.5L282 311.5L283.5 314.5L286 317L288 319L291 320.5H363.5L368.5 319L370.5 317L372 314.5V311.5L258 48.5L256 46.5L253.5 43.5L251 41.5H248.5ZM216.5 159L218 158L219.5 158.5L220.5 159.5L221.5 160.5L241 208L241.5 209.5V211.5L241 213L239.5 214L237 215H200.5H199L197.5 214L196 213L195.5 211.5V210L196 208L215 162L216.5 159Z" fill="#012D5B" stroke="#012D5B"/>
<path fill-rule="evenodd" clip-rule="evenodd" d="M523 467H489.5L537 377.5H623.5C623.5 377.5 626 379.5 626.5 380C627 380.5 629.421 383.999 630 387C630.407 389.109 630 392.5 630 392.5L612.5 424C612.5 424 609.025 428.567 606 430.5C604.528 431.44 603.612 431.828 602 432.5C600.29 433.212 597.5 434 597.5 434H540L523 467ZM549.5 414.5L557 400.5H592.5L585 414.5H549.5Z" fill="#172126"/>
<path d="M597.5 434C597.5 434 600.29 433.212 602 432.5C603.612 431.828 604.528 431.44 606 430.5C609.025 428.567 612.5 424 612.5 424L630 392.5C630 392.5 630.407 389.109 630 387C629.421 383.999 627 380.5 626.5 380C626 379.5 623.5 377.5 623.5 377.5H537L489.5 467H523L540 434M597.5 434C575.045 434 562.455 434 540 434M597.5 434H540M557 400.5L549.5 414.5H585L592.5 400.5H557Z" stroke="#172126"/>
<path fill-rule="evenodd" clip-rule="evenodd" d="M466.5 467H356L367.5 444.5H380.5L409.5 390.5L413.5 385.5L418.5 382L423.5 379L427 378H512.5L466.5 467ZM413.5 444.5L437 400.5H469L445.5 444.5H413.5Z" fill="#172126" stroke="#172126"/>
<path d="M0.999972 468.5L333.5 467.5L382 378C382 378 258.478 373.971 179.5 378C172.469 378.359 168.528 378.584 161.5 379C155.25 379.37 151.742 379.521 145.5 380C141.005 380.345 138.484 380.539 134 381C129.109 381.502 126.36 381.758 121.5 382.5C117.184 383.159 114.778 383.626 110.5 384.5C106.184 385.382 103.767 385.904 99.5 387C95.3694 388.061 97.5 387.5 89.5 389.5C85.9611 390.385 83.4625 391.352 80 392.5C76.4204 393.687 74.4885 394.568 71 396C65.663 398.191 62.6851 399.47 57.5 402C53.3397 404.03 47 407.5 47 407.5C47 407.5 43.7288 409.454 41.5 411C39.2712 412.546 37.2995 413.996 35 416C32.8116 417.907 29.5 421 29.5 421L23.5 427L18.5 432.5L14.5 437C14.5 437 12.5349 439.344 11.5 441C10.343 442.851 9.41421 445.172 9 446C8.58579 446.828 7.39154 449.007 6.49997 451C5.38927 453.482 4.99534 454.969 3.99997 457.5C3.23029 459.457 2.62896 460.493 1.99997 462.5C1.51839 464.036 1.12838 464.895 0.999972 466.5C0.937687 467.278 0.999972 468.5 0.999972 468.5Z" fill="#C80816" stroke="#C80816"/>
<path d="M865 468.5L913.5 379C949.5 378.667 1023 378 1023 378C1023 378 1041.83 376 1050.5 375C1059.17 374 1069.68 370.725 1081.5 366.5C1096.96 360.973 1105.62 357.271 1119.5 348.5C1131.26 341.072 1137.24 335.887 1147.5 326.5C1155.34 319.323 1159.6 315.089 1166.5 307C1174.94 297.105 1179.36 291.185 1186 280C1191.88 270.087 1193 267 1199 253.5C1205 240 1207.5 226 1207.5 226L1212.5 198.5C1213.83 190.667 1213.67 175.5 1212.5 167.5C1211.33 159.5 1211.12 151.826 1209 142C1207.12 133.283 1205.49 128.419 1202.72 120.144L1202.5 119.5C1199.71 111.179 1198.03 106.536 1194.5 98.5C1190.36 89.0648 1187.94 83.7522 1182.5 75C1176.83 65.8784 1172.64 60.9446 1166 52.5C1160.5 45.5 1157.05 42.0531 1151 36C1147.49 32.4853 1142 28.5 1138 25.5C1130.63 19.97 1121.5 13.5 1121.5 13.5L1100.5 0.5C1100.5 0.5 1104.47 1.3609 1107 2C1117.84 4.74221 1123.78 6.96994 1134 11.5C1145.43 16.5652 1151.45 20.2975 1162 27C1171.1 32.7821 1176.05 36.3061 1184.5 43C1193.07 49.7854 1197.79 53.7565 1205.5 61.5C1213.71 69.7381 1217.99 74.7207 1225 84C1231.62 92.7736 1240.5 107.5 1240.5 107.5C1240.5 107.5 1249.91 122.922 1254.5 133.5C1258.21 142.054 1259.69 147.106 1262.5 156C1264.88 163.546 1266.19 167.799 1268 175.5C1269.64 182.47 1271.5 193.5 1271.5 193.5C1271.5 193.5 1272.56 200.492 1273 205C1274.33 218.604 1274.2 226.384 1273 240C1272.36 247.262 1271.88 251.341 1270.5 258.5C1269.67 262.826 1269.13 265.241 1268 269.5C1267.12 272.845 1266.49 274.685 1265.5 278C1263.98 283.088 1263.15 285.951 1261.5 291C1259.83 296.107 1258.96 298.998 1257 304C1254.42 310.59 1252.72 314.196 1249.5 320.5C1246.44 326.496 1244.54 329.77 1241 335.5C1237.67 340.892 1235.57 343.766 1232 349C1228.92 353.52 1227.35 356.176 1224 360.5C1220.35 365.203 1217.97 367.569 1214 372C1208.28 378.376 1204.97 381.861 1199 388C1194.57 392.552 1192.27 395.305 1187.5 399.5C1183.22 403.267 1180.56 405.073 1176 408.5C1171.19 412.114 1168.41 414.022 1163.5 417.5C1159.61 420.257 1157.51 421.915 1153.5 424.5C1149.31 427.206 1146.84 428.542 1142.5 431C1135.96 434.7 1132.22 436.649 1125.5 440C1121.04 442.221 1118.55 443.487 1114 445.5C1109.75 447.376 1107.32 448.297 1103 450C1098.92 451.611 1096.64 452.542 1092.5 454C1085.57 456.443 1081.59 457.572 1074.5 459.5C1069.84 460.767 1067.21 461.439 1062.5 462.5C1056.48 463.854 1053.08 464.499 1047 465.5C1041.36 466.428 1038.18 466.879 1032.5 467.5C1028.02 467.99 1025.5 468.314 1021 468.5C1016.9 468.669 1014.6 468.5 1010.5 468.5H865Z" fill="#CE1E1E" stroke="#CE1E1E"/>
<path d="M792.5 416.5L765.5 467H732L780 378H812.5L822 403.5L857.5 379H891.5L843 467H810.5L834 418.5L800.5 442L792.5 416.5Z" fill="#172126" stroke="#172126"/>
<path fill-rule="evenodd" clip-rule="evenodd" d="M700.5 465.5H613L655 388L658.5 384L661.5 382L663.5 380L666.5 378L671.5 376.5H758L717 454L714.5 457L711.5 460.5L708 463.5L704.5 465.5H700.5ZM658.5 444H688.5L711.5 399.5H681.5L658.5 444Z" fill="#172126"/>
<path d="M712.5 118.5V313V314L713.5 315.5L714.5 317L715.5 318L717 319.5L720 320H780.5H783L784.5 319.5L786.5 317.5L787.5 316L788.5 313V118.5L789 116.5L790 114.5L791.5 113L793.5 112L796.5 111H854.5L856 110.5L857.5 109L858.5 108L859.5 106L860.5 104V50L860 47L859.5 46L858.5 44L857.5 43L856.5 42L854.5 41H852.5H646.5L644 42.5L641.5 44.5L640 47.5V103.5L641.5 106.5L644 109L647.5 111H706.5L709.5 113L711 115.5L712.5 118.5Z" fill="#012D5B" stroke="#012D5B"/>
<path fill-rule="evenodd" clip-rule="evenodd" d="M932 61.9998C926.371 66.081 923.155 68.3338 918 72.9997C911.855 78.5621 908.741 82.0781 903.5 88.4997C897.917 95.3406 895.022 99.4156 890.5 107C886.028 114.5 883.657 118.858 880.5 127C877.775 134.027 876.656 138.147 875 145.5C873.307 153.016 872.77 157.333 872 165C870.537 179.571 869.668 188.042 872 202.5C872.86 207.832 873.674 210.764 875 216C876.85 223.306 877.622 227.534 880.5 234.5C883.202 241.039 885.438 244.387 889 250.5C893.336 257.94 895.871 262.082 901 269C905.378 274.904 907.837 278.268 913 283.5C918.55 289.123 922.079 291.897 928.5 296.5C933.564 300.129 936.594 301.904 942 305C947.532 308.168 950.704 309.845 956.5 312.5C961.676 314.871 964.627 316.119 970 318C975.19 319.816 978.132 320.81 983.5 322C988.515 323.111 991.396 323.418 996.5 324C1011.24 325.68 1019.77 325.842 1034.5 324C1042.59 322.987 1047.14 322.175 1055 320C1063.22 317.726 1067.78 316.112 1075.5 312.5C1083.27 308.867 1087.42 306.34 1094.5 301.5C1102.18 296.249 1106.16 292.797 1113 286.5C1120.52 279.579 1124.71 275.558 1131 267.5C1137 259.814 1139.81 255.045 1144.5 246.5C1147.95 240.223 1149.87 236.659 1152.5 230C1155.86 221.495 1157.19 216.465 1159 207.5C1162.36 190.83 1163.57 180.811 1161 164C1160.4 160.063 1159.84 157.893 1159 154C1157.6 147.519 1157.07 143.799 1155 137.5C1152.82 130.85 1150.84 127.398 1148 121C1145.91 116.288 1142.5 109 1142.5 109C1142.5 109 1136.12 98.1702 1131 91.9997C1127.39 87.6405 1125 85.5104 1121 81.4997C1113.68 74.1595 1109.84 69.6531 1101.5 63.4998C1094.87 58.6084 1090.82 56.2878 1083.5 52.4998C1077.06 49.1631 1073.27 47.6014 1066.5 44.9997C1062.06 43.2949 1059.54 42.4079 1055 40.9997C1049.98 39.4427 1047.45 38.5762 1042 37.5C1038.28 36.7653 1035.74 36.6118 1032 36C1018.7 33.8259 1010.35 34.674 997 36.4997C992.674 37.0914 990.263 37.5564 986 38.4997C979.662 39.9021 976.167 40.9744 970 42.9997C964.659 44.754 962.378 45.5075 956.5 47.9997C951.826 49.9816 947.466 52.0864 943 54.4998C938.426 56.9713 936.209 58.9479 932 61.9998ZM991.5 113C997.831 110.464 1001.73 109.829 1008.5 109C1016.06 108.073 1020 108.5 1025 109C1030 109.5 1031.69 110.123 1034 111C1038.65 112.767 1041 114.361 1045.5 116.5C1049.21 118.263 1054.5 122 1054.5 122C1054.5 122 1062.26 128.081 1066.5 133C1070.22 137.321 1072.47 139.67 1075.5 144.5C1077.73 148.051 1078.97 150.096 1080.5 154C1082.26 158.498 1082.67 161.24 1083.5 166C1084.04 169.102 1084.24 170.862 1084.5 174C1085.04 180.421 1085.2 184.094 1084.5 190.5C1084.22 193.053 1084.12 194.506 1083.5 197C1082.7 200.239 1081.72 201.893 1080.5 205C1078.65 209.727 1077.89 212.52 1075.5 217C1072.59 222.448 1070.83 225.602 1066.5 230C1062.58 233.977 1059.6 235.33 1055 238.5C1050.23 241.789 1047.67 243.884 1042.5 246.5C1036.38 249.595 1032.75 251.312 1026 252.5C1019.27 253.684 1015.27 253.41 1008.5 252.5C1004.74 251.995 1002.67 251.441 999 250.5C994.035 249.227 991.15 248.657 986.5 246.5C979.272 243.147 975.801 239.962 970 234.5C964.958 229.752 962.247 226.824 958.5 221C954.766 215.196 953.188 211.545 951 205C948.972 198.934 948.21 195.356 947.5 189C946.741 182.208 946.585 178.272 947.5 171.5C948.255 165.915 949.164 162.828 951 157.5C953.248 150.975 954.833 147.346 958.5 141.5C961.239 137.133 963.037 134.818 966.5 131C970.4 126.699 972.819 124.434 977.5 121C982.577 117.275 985.654 115.341 991.5 113Z" fill="#012D5B" stroke="#012D5B"/>
</svg>
