<svg xmlns="http://www.w3.org/2000/svg" width="47.746" height="45.94" viewBox="0 0 47.746 45.94">
  <defs>
    <style>
      .cls-1 {
        fill: #121212;
        fill-rule: evenodd;
      }
    </style>
  </defs>
  <path id="Preim44.svg" class="cls-1" d="M1035.38,1349.88l-10.48,6.67v2.63l9.41-5.99a0.994,0.994,0,0,1,1.38.31,1.011,1.011,0,0,1-.31,1.38l-10.48,6.66v2.63l9.41-5.99a1,1,0,0,1,1.07,1.69l-10.48,6.67v2.63l9.41-5.99a0.994,0.994,0,0,1,1.38.31,1.013,1.013,0,0,1-.31,1.38l-10.48,6.66v0.52a1,1,0,0,1-.45.84l-7.96,5.16a1.032,1.032,0,0,1-.54.16,0.878,0.878,0,0,1-.47-0.13,1.009,1.009,0,0,1-.35-0.33l-9.59,6.09a0.918,0.918,0,0,1-.53.16,0.98,0.98,0,0,1-.56-0.18l-15.913-10.98a1,1,0,0,1-.256-1.39,0.99,0.99,0,0,1,1.383-.26l15.366,10.61,9.93-6.31v-2.63l-9.42,5.99a1,1,0,0,1-.53.16,0.98,0.98,0,0,1-.56-0.18l-15.913-10.99a1,1,0,0,1-.256-1.39,0.988,0.988,0,0,1,1.383-.25l15.366,10.61,9.93-6.31v-2.62l-9.42,5.98a0.988,0.988,0,0,1-.53.15,1.048,1.048,0,0,1-.56-0.17l-15.913-10.99a1,1,0,0,1,1.127-1.65l15.376,10.62,9.92-6.3v-2.65l-9.42,5.99a0.941,0.941,0,0,1-1.05,0l-15.916-9.98a1.016,1.016,0,0,1-.468-0.85,1,1,0,0,1,.471-0.85l10.454-6.5h-0.01a1.024,1.024,0,0,1-.437-0.86,1.008,1.008,0,0,1,.48-0.83l7.366-4.46a0.994,0.994,0,0,1,1.05.01l0.56,0.35,10.36-6.68a0.99,0.99,0,0,1,1.06-.01l15.91,9.99a1,1,0,0,1,.47.85A0.985,0.985,0,0,1,1035.38,1349.88Zm-44.4,8.15,14.026,8.81,9.2-5.85-1.31-.89-5.89,3.74-0.53-.34a1.906,1.906,0,0,0-2.06-.01l-0.53.34-8.121-5.16,1.329-.84a1.628,1.628,0,0,0,.189-0.15c-0.042-.03-0.105-0.08-0.2-0.14l-1.33-.85,6.262-3.98-1.18-.8Zm8.171,0.43,4.785,3.04a3.95,3.95,0,0,1,3.02,0l4.14-2.63-7.28-4.94-4.666,2.97a1.809,1.809,0,0,1,.181.78A1.839,1.839,0,0,1,999.155,1358.46Zm7.785-11.9-5.52,3.34h0.02l15.07,10.24a0.963,0.963,0,0,1,.41.73,0.048,0.048,0,0,1,.01.04c0,0.02.02,0.03,0.02,0.05v14.41l5.96-3.86v-14.88Zm17.85,2.05-4.78-3.03a3.975,3.975,0,0,1-3.03,0l-3.91,2.48,7.56,4.77,4.16-2.65A1.8,1.8,0,0,1,1024.79,1348.61Zm-5.85-8.38-9.04,5.84,1.3,0.82,5.73-3.64,0.53,0.34a1.961,1.961,0,0,0,2.07,0l0.53-.34,8.12,5.16-1.33.84a1.455,1.455,0,0,0-.2.15c0.05,0.04.11,0.09,0.2,0.15l1.33,0.84-5.69,3.61,1.35,0.86,9.14-5.81Zm-1,7.81h1.99v2h-1.99v-2Zm-11.93,10.99h-1.99v-2h1.99v2Z" transform="translate(-988.094 -1338.06)"/>
</svg>

