<svg xmlns="http://www.w3.org/2000/svg" width="34.031" height="46" viewBox="0 0 34.031 46">
  <defs>
    <style>
      .cls-1 {
        fill: #121212;
        fill-rule: evenodd;
      }
    </style>
  </defs>
  <path id="Preim22.svg" class="cls-1" d="M794.324,1353.05a4.43,4.43,0,0,1-.536-4.04,4.611,4.611,0,0,1,2.98-2.9,4.47,4.47,0,0,1,1.457-3.82,4.744,4.744,0,0,1,4.014-1.21,4.623,4.623,0,0,1,3.122-2.73,10.091,10.091,0,0,0,8.2-.24,4.613,4.613,0,0,1,3.281,2.53,4.724,4.724,0,0,1,4.087.97,4.46,4.46,0,0,1,1.692,3.72,4.628,4.628,0,0,1,3.16,2.71,4.418,4.418,0,0,1-.28,4.06,4.548,4.548,0,0,1-.678,7.3,4.438,4.438,0,0,1-.485,4.07,4.674,4.674,0,0,1-3.591,2.09,4.532,4.532,0,0,1-2.361,3.38,4.837,4.837,0,0,1-1.179.46l4.29,10.85a0.94,0.94,0,0,1-.184.98,1,1,0,0,1-.982.29l-4.148-1.05-2.034,3.09a0.982,0.982,0,0,1-.828.44,0.41,0.41,0,0,1-.11-0.01,0.976,0.976,0,0,1-.816-0.62l-3.629-9.79a0.954,0.954,0,0,1,.592-1.23,0.992,0.992,0,0,1,1.26.58l2.952,7.96,1.342-2.04a1,1,0,0,1,1.075-.41l2.983,0.75-3.856-9.75a4.259,4.259,0,0,1-.909-0.28,4.655,4.655,0,0,1-3.692,1.92,0.866,0.866,0,0,1-.16.01,4.692,4.692,0,0,1-3.658-1.7,4.787,4.787,0,0,1-1.368.44l-3.7,9.36,2.983-.75a1,1,0,0,1,1.076.41l1.291,1.96,0.571-1.73a0.98,0.98,0,0,1,1.239-.62,0.948,0.948,0,0,1,.636,1.2l-1.209,3.67a0.974,0.974,0,0,1-.81.66,0.557,0.557,0,0,1-.128.01,0.983,0.983,0,0,1-.828-0.44l-2.034-3.09-4.148,1.05a1,1,0,0,1-.982-0.29,0.94,0.94,0,0,1-.184-0.98l4.169-10.54a5.346,5.346,0,0,1-.752-0.29,4.534,4.534,0,0,1-2.58-3.23,4.664,4.664,0,0,1-3.713-1.86,4.449,4.449,0,0,1-.75-4.04,4.518,4.518,0,0,1-2.4-3.33A4.465,4.465,0,0,1,794.324,1353.05Zm0.687,3.62a2.631,2.631,0,0,0,2,2.17,0.966,0.966,0,0,1,.659.55,0.935,0.935,0,0,1-.055.85,2.615,2.615,0,0,0,.179,2.95,2.69,2.69,0,0,0,2.809,1.01,0.969,0.969,0,0,1,.85.2,0.93,0.93,0,0,1,.356.77,2.654,2.654,0,0,0,1.553,2.53,2.762,2.762,0,0,0,1.174.27h0.149a2.692,2.692,0,0,0,1.652-.65,1.017,1.017,0,0,1,.643-0.24,1.423,1.423,0,0,1,.2.02,1,1,0,0,1,.685.53,2.75,2.75,0,0,0,2.572,1.54,2.721,2.721,0,0,0,2.46-1.69,0.968,0.968,0,0,1,.65-0.57,1.01,1.01,0,0,1,.859.16,2.756,2.756,0,0,0,3,.19,2.624,2.624,0,0,0,1.383-2.61,0.929,0.929,0,0,1,.3-0.79,0.984,0.984,0,0,1,.836-0.25,2.693,2.693,0,0,0,2.744-1.18,2.609,2.609,0,0,0-.015-2.95,0.929,0.929,0,0,1-.11-0.84,0.954,0.954,0,0,1,.623-0.6,2.654,2.654,0,0,0,.449-4.89,0.967,0.967,0,0,1-.5-0.7,0.936,0.936,0,0,1,.267-0.81,2.553,2.553,0,0,0,.559-2.87,2.731,2.731,0,0,0-2.494-1.67,0.978,0.978,0,0,1-.774-0.39,0.941,0.941,0,0,1-.15-0.84,2.557,2.557,0,0,0-.876-2.79,2.776,2.776,0,0,0-3-.35,0.989,0.989,0,0,1-.872,0,0.965,0.965,0,0,1-.533-0.67,2.652,2.652,0,0,0-2.114-2.08,2.767,2.767,0,0,0-2.818,1.06,1.008,1.008,0,0,1-1.561.04,2.757,2.757,0,0,0-2.871-.88,2.68,2.68,0,0,0-1.986,2.21,0.975,0.975,0,0,1-.49.7,1.021,1.021,0,0,1-.87.05,2.777,2.777,0,0,0-2.968.52,2.569,2.569,0,0,0-.7,2.85,0.932,0.932,0,0,1-.1.84,0.955,0.955,0,0,1-.747.44,2.718,2.718,0,0,0-2.38,1.82,2.557,2.557,0,0,0,.738,2.83,0.936,0.936,0,0,1,.317.79,0.959,0.959,0,0,1-.453.73A2.627,2.627,0,0,0,795.011,1356.67Zm15.282-12.03a9.978,9.978,0,0,1,4.437,1.03,0.947,0.947,0,0,1,.435,1.29,1,1,0,0,1-1.323.42,8.026,8.026,0,0,0-3.549-.82,7.682,7.682,0,1,0,7.877,7.68,7.493,7.493,0,0,0-.181-1.64,0.97,0.97,0,0,1,.752-1.15,0.99,0.99,0,0,1,1.172.74,9.4,9.4,0,0,1,.226,2.05A9.849,9.849,0,1,1,810.293,1344.64Zm7.7,4.39-6.892,9.6a1.021,1.021,0,0,1-.721.41h-0.086a1,1,0,0,1-.7-0.28l-3.939-3.84a0.947,0.947,0,0,1,0-1.36,1.013,1.013,0,0,1,1.393,0l3.108,3.03,6.22-8.66a1.009,1.009,0,0,1,1.371-.24A0.95,0.95,0,0,1,817.992,1349.03Z" transform="translate(-793 -1338)"/>
</svg>

