<svg xmlns="http://www.w3.org/2000/svg" width="42" height="47" viewBox="0 0 42 47">
  <defs>
    <style>
      .cls-1 {
        fill: #121212;
        fill-rule: evenodd;
      }
    </style>
  </defs>
  <path id="Preim11.svg" class="cls-1" d="M885,1384v-1h-1a2.767,2.767,0,0,0-1.484.7,5.831,5.831,0,0,1-3.514,1.3h-6.5c-2.346,0-3.772-1.23-4.36-3.75-0.352-1.5-1.1-6.88-1.128-7.11l0-.04a3.617,3.617,0,0,1,.852-2.85,4.11,4.11,0,0,1,3.141-1.25h0.609a1,1,0,0,1,0,2H871.01a2.212,2.212,0,0,0-1.655.58,1.675,1.675,0,0,0-.351,1.3c0.047,0.34.769,5.54,1.091,6.92,0.38,1.62,1.011,2.2,2.414,2.2h6.5a3.938,3.938,0,0,0,2.379-.95A4.54,4.54,0,0,1,884,1381h1v-9h-1a7.687,7.687,0,0,1-4.249-1.74l-0.068-.06c-0.317-.32-0.609-0.56-0.891-0.8a3.948,3.948,0,0,1-1.789-3.4v-0.87a0.943,0.943,0,0,0-1.01.08,2.379,2.379,0,0,0-.968,2.3,6.473,6.473,0,0,0,.7,2.96,5.4,5.4,0,0,1,.671,2.2l0.026,0.17a3.78,3.78,0,0,0,3.58,3.16,1,1,0,0,1,0,2,5.76,5.76,0,0,1-5.557-4.86l-0.027-.18a3.783,3.783,0,0,0-.385-1.43,8.318,8.318,0,0,1-1.007-4.02,4.362,4.362,0,0,1,1.75-3.89,2.97,2.97,0,0,1,3.068-.31,1.915,1.915,0,0,1,1.158,1.69v1c0,0.95.252,1.16,1.085,1.87,0.286,0.24.609,0.52,0.964,0.87A5.789,5.789,0,0,0,884,1370h1v-1h7v15h-7Zm5-13h-3v11h3v-11Zm-26.226-.38-4,5a0.992,0.992,0,0,1-.725.38H859a0.988,0.988,0,0,1-.707-0.29l-2-2a1,1,0,1,1,1.413-1.42l1.21,1.21,3.3-4.12A1,1,0,1,1,863.775,1370.62Zm-4-17a0.992,0.992,0,0,1-.725.38H859a0.988,0.988,0,0,1-.707-0.29l-2-2a1,1,0,1,1,1.413-1.42l1.21,1.21,3.3-4.12a1,1,0,1,1,1.562,1.24Zm4,6-4,5a0.992,0.992,0,0,1-.725.38H859a0.988,0.988,0,0,1-.707-0.29l-2-2a1,1,0,1,1,1.413-1.42l1.21,1.21,3.3-4.12A1,1,0,1,1,863.775,1359.62Zm19.21,7.38a1,1,0,0,1-1-1v-22.59l-3.412-3.41H852v42h12.994a1,1,0,0,1,0,2H851a1,1,0,0,1-1-1v-44a1,1,0,0,1,1-1h27.988a1.027,1.027,0,0,1,.706.29l4,4a1,1,0,0,1,.292.71v23A1,1,0,0,1,882.985,1367Zm-12.994-3h-3a1,1,0,0,1,0-2h3A1,1,0,0,1,869.991,1364Zm5-4h-8a1,1,0,0,1,0-2h8A1,1,0,1,1,874.988,1360Zm-8-11a1,1,0,0,1,0-2h5a1,1,0,0,1,0,2h-5Zm9-4v-3a1,1,0,1,1,2,0v2h2a1,1,0,0,1,0,2h-3A1,1,0,0,1,875.988,1345Zm1,8h-10a1,1,0,0,1,0-2h10A1,1,0,0,1,876.988,1353Z" transform="translate(-850 -1338)"/>
</svg>

