<svg xmlns="http://www.w3.org/2000/svg" width="48" height="46" viewBox="0 0 48 46">
  <defs>
    <style>
      .cls-1 {
        fill: #121212;
        fill-rule: evenodd;
      }
    </style>
  </defs>
  <path id="Preim33.svg" class="cls-1" d="M876.5,1349.91l-1.864,1.87A18.992,18.992,0,0,1,861,1384H845v-2h16a17,17,0,0,0,1.89-33.89l-0.89-.1V1345h2v1.24a18.854,18.854,0,0,1,9.176,4.17l1.91-1.91-0.793-.79,1.414-1.42,3,3-1.414,1.42ZM862,1342h3v-2h-8v2h3v2h-5v-6h12v6h-5v-2Zm-1,19a3.969,3.969,0,0,1,2.019.57l7.274-7.28,1.414,1.42-7.274,7.27A3.988,3.988,0,1,1,861,1361Zm0,6a2,2,0,1,0-2-2A2,2,0,0,0,861,1367Zm12.992-9.5A15,15,0,0,1,861,1380h-4v-2h4a13.005,13.005,0,0,0,11.262-19.5ZM858,1345h2v3.01l-0.89.1a16.945,16.945,0,0,0-11.061,5.89H852v2H837v-2h8.536A18.941,18.941,0,0,1,858,1346.24V1345Zm-14.508,12.61,1.842,0.78a16.827,16.827,0,0,0-1.067,3.61H849v2H832v-2h10.247A18.791,18.791,0,0,1,843.492,1357.61Zm7.121,20.85-1.222,1.58a18.955,18.955,0,0,1-4.851-5.54l1.732-1A17.155,17.155,0,0,0,850.613,1378.46Zm-8.584-12.4,2-.11a16.858,16.858,0,0,0,.733,4.05H850v2H835v-2h7.665A19.093,19.093,0,0,1,842.029,1366.06Z" transform="translate(-832 -1338)"/>
</svg>

