<svg xmlns="http://www.w3.org/2000/svg" width="64.47" height="64.6" viewBox="0 0 64.47 64.6">
  <defs>
    <style>
      .cls-1 {
        fill: #121212;
        fill-rule: evenodd;
      }
    </style>
  </defs>
  <path id="U19.svg" class="cls-1" d="M1059.29,1294.1a5.26,5.26,0,1,1-5.25,5.26A5.264,5.264,0,0,1,1059.29,1294.1Zm0,8.01a2.75,2.75,0,1,0-2.75-2.75A2.748,2.748,0,0,0,1059.29,1302.11Zm0,8.52a11.269,11.269,0,0,1-11.24-11.27c0-.15.03-0.3,0.03-0.45l-6.96-6.97a2.27,2.27,0,0,1,0-3.18l0.41-.41-2.75-2.76-6.52,5.49a3.751,3.751,0,0,1-4.82-5.75l19.91-16.74a3.744,3.744,0,0,1,5.28.47,3.767,3.767,0,0,1-.47,5.29l-11.45,9.63,3.47,3.48a1.249,1.249,0,0,1,0,1.77l-1.11,1.12,5.54,5.55a1.247,1.247,0,0,1,1.52-.74,1.269,1.269,0,0,1,.82,1.57,8.647,8.647,0,0,0-.4,2.63,8.745,8.745,0,1,0,8.74-8.76,8.85,8.85,0,0,0-2.62.4,1.242,1.242,0,0,1-.83-2.34l-5.54-5.55-1.12,1.12a1.287,1.287,0,0,1-1.77,0l-1-1.01a1.248,1.248,0,0,1,1.77-1.76l0.12,0.11,0.41-.41a2.3,2.3,0,0,1,3.18,0l6.95,6.97c0.15,0,.3-0.03.45-0.03A11.265,11.265,0,0,1,1059.29,1310.63Zm-8.73-38.2a1.288,1.288,0,0,0,.44-0.85,1.208,1.208,0,0,0-.29-0.91,1.224,1.224,0,0,0-.96-0.45,1.25,1.25,0,0,0-.8.29l-19.9,16.73a1.258,1.258,0,0,0-.45.85,1.32,1.32,0,0,0,.29.92,1.288,1.288,0,0,0,.85.44,1.208,1.208,0,0,0,.91-0.29Zm-25.3,11.64a3.742,3.742,0,0,1-5.28-.46,3.765,3.765,0,0,1,.46-5.29l19.91-16.73a3.731,3.731,0,0,1,5.28.46,3.766,3.766,0,0,1-.46,5.29Zm18.46-20.41a1.239,1.239,0,0,0-.96-0.45,1.211,1.211,0,0,0-.8.29l-19.91,16.74a1.206,1.206,0,0,0-.44.85,1.221,1.221,0,0,0,.29.91,1.2,1.2,0,0,0,.84.44,1.244,1.244,0,0,0,.92-0.29l19.9-16.73a1.226,1.226,0,0,0,.44-0.85A1.242,1.242,0,0,0,1043.72,1263.66Zm-28.4-10.11a1.25,1.25,0,1,1,0-2.5,4.255,4.255,0,1,1-4.25,4.26,1.25,1.25,0,1,1,2.5,0A1.745,1.745,0,1,0,1015.32,1253.55Zm2.95,23.51a3.751,3.751,0,0,1-4.82-5.75l6.02-5.06-1.95-1.96a9.088,9.088,0,0,1-2.2.28,9.26,9.26,0,1,1,9.24-9.26,8.733,8.733,0,0,1-.28,2.2l0.91,0.92a1.217,1.217,0,0,1,.37.88,1.24,1.24,0,0,1-.37.89,1.256,1.256,0,0,1-1.76,0l-1.44-1.44a1.28,1.28,0,0,1-.3-1.29,6.585,6.585,0,0,0,.37-2.16,6.733,6.733,0,1,0-3.37,5.85,1.252,1.252,0,0,1,.95-0.13,1.233,1.233,0,0,1,.75.59,1.214,1.214,0,0,1,.13.95,1.283,1.283,0,0,1-.5.69l1.37,1.37,11.96-10.05a3.751,3.751,0,0,1,4.82,5.75Zm18.45-20.41a1.239,1.239,0,0,0-.96-0.45,1.286,1.286,0,0,0-.8.29l-19.91,16.74a1.245,1.245,0,0,0-.44.85,1.25,1.25,0,0,0,1.14,1.35,1.242,1.242,0,0,0,.91-0.28l19.91-16.74A1.248,1.248,0,0,0,1036.72,1256.65Z" transform="translate(-1006.06 -1246.03)"/>
</svg>

