<svg xmlns="http://www.w3.org/2000/svg" width="64.563" height="56.57" viewBox="0 0 64.563 56.57">
  <defs>
    <style>
      .cls-1 {
        fill: #121212;
        fill-rule: evenodd;
      }
    </style>
  </defs>
  <path id="U2.svg" class="cls-1" d="M569.424,1384.64h-5.486l-1.269,1.27v2.97l1.269,1.27h5.486a1.242,1.242,0,0,1,1.015.52,1.259,1.259,0,0,1,.172,1.13c-1.132,3.39-5,5.86-9.193,5.86a10.273,10.273,0,0,1-8.809-5.05,1.273,1.273,0,0,1-.2.04h-28.02a1.273,1.273,0,0,1-.2-0.04,10.272,10.272,0,0,1-8.809,5.05c-4.195,0-8.061-2.47-9.193-5.86a1.259,1.259,0,0,1,.172-1.13,1.242,1.242,0,0,1,1.015-.52h6.487l1.268-1.27v-2.97l-1.268-1.27H507.38a1.257,1.257,0,0,1-1.068-.6,1.243,1.243,0,0,1-.043-1.22,10.438,10.438,0,0,1,9.117-5.69,10.273,10.273,0,0,1,8.809,5.05,1.273,1.273,0,0,1,.2-0.04h28.02a1.273,1.273,0,0,1,.2.04,10.273,10.273,0,0,1,8.809-5.05,10.439,10.439,0,0,1,9.117,5.69A1.248,1.248,0,0,1,569.424,1384.64Zm-8.006-5a7.773,7.773,0,0,0-7.314,5.17,1.25,1.25,0,0,1-1.6.76,1.222,1.222,0,0,1-.786-0.93H525.08a1.241,1.241,0,0,1-.785.93,1.26,1.26,0,0,1-1.6-.76,7.67,7.67,0,0,0-12.917-2.67h4.6a1.229,1.229,0,0,1,.884.37l2,2a1.247,1.247,0,0,1,.366.88v4.01a1.229,1.229,0,0,1-.366.88l-2,2.01a1.262,1.262,0,0,1-.884.36h-4.869a7.892,7.892,0,0,0,13.184-2.67,1.241,1.241,0,0,1,.641-0.71,1.265,1.265,0,0,1,.955-0.05,1.243,1.243,0,0,1,.712.64,1.165,1.165,0,0,1,.074.29h26.642a1.241,1.241,0,0,1,.785-0.93,1.25,1.25,0,0,1,1.6.77,7.771,7.771,0,0,0,7.312,5.17,7.88,7.88,0,0,0,5.855-2.51H563.42a1.266,1.266,0,0,1-.885-0.36l-2-2.01a1.229,1.229,0,0,1-.366-0.88v-4.01a1.247,1.247,0,0,1,.366-0.88l2-2a1.233,1.233,0,0,1,.885-0.37h3.6A7.774,7.774,0,0,0,561.418,1379.64Zm-35.707-9.01h-8.324a1.255,1.255,0,0,1,0-2.51h6.3l-0.5-1.01a1.231,1.231,0,0,1-.068-0.95,1.2,1.2,0,0,1,.628-0.72,1.248,1.248,0,0,1,1.678.56l1.41,2.82A1.254,1.254,0,0,1,525.711,1370.63Zm34.957-1.25a1.251,1.251,0,0,1-1.251,1.25h-8.324a1.255,1.255,0,0,1-1.119-1.81l1.41-2.82a1.248,1.248,0,0,1,1.678-.56,1.2,1.2,0,0,1,.628.72,1.231,1.231,0,0,1-.068.95l-0.5,1.01h6.3A1.26,1.26,0,0,1,560.668,1369.38Zm-14.26,4.75a1.25,1.25,0,1,1,0,2.5H530.4a1.25,1.25,0,1,1,0-2.5h16.012Zm-26.269-16.77a1.251,1.251,0,0,1,1.251-1.25h34.024a1.25,1.25,0,1,1,0,2.5H521.39A1.251,1.251,0,0,1,520.139,1357.36Zm48.022,3.26H565.6l0.335,0.88a11.177,11.177,0,0,1,.738,4.01v9.87a1.251,1.251,0,0,1-2.5,0v-9.87a8.753,8.753,0,0,0-.573-3.12l-0.982-2.58a1.26,1.26,0,0,1,.139-1.16,1.273,1.273,0,0,1,1.03-.54h4.061l-0.686-2.92a0.749,0.749,0,0,0-.731-0.58h-4.634a1.254,1.254,0,0,1-1.119-.69l-3.845-7.69a4.712,4.712,0,0,0-4.251-2.63H524.225a4.712,4.712,0,0,0-4.251,2.63l-3.845,7.69a1.254,1.254,0,0,1-1.119.69h-4.634a0.749,0.749,0,0,0-.731.58l-0.686,2.92h4.061a1.255,1.255,0,0,1,1.03.55,1.236,1.236,0,0,1,.139,1.15l-0.982,2.58a8.753,8.753,0,0,0-.573,3.12v9.87a1.251,1.251,0,0,1-2.5,0v-9.87a11.177,11.177,0,0,1,.738-4.01l0.335-.88h-2.562a2.259,2.259,0,0,1-2.192-2.77l0.759-3.23a3.236,3.236,0,0,1,3.166-2.51h3.861l3.5-7a7.213,7.213,0,0,1,6.489-4.02h28.354a7.213,7.213,0,0,1,6.489,4.02l3.5,7h3.861a3.236,3.236,0,0,1,3.166,2.51l0.759,3.23A2.259,2.259,0,0,1,568.161,1360.62Z" transform="translate(-506.125 -1341.09)"/>
</svg>

