<svg xmlns="http://www.w3.org/2000/svg" width="60.531" height="64.57" viewBox="0 0 60.531 64.57">
  <defs>
    <style>
      .cls-1 {
        fill: #121212;
        fill-rule: evenodd;
      }
    </style>
  </defs>
  <path id="U4.svg" class="cls-1" d="M537.3,1525.97a1.251,1.251,0,0,1,.068-0.96l2-4a1.248,1.248,0,0,1,1.678-.56l16.012,8a1.245,1.245,0,0,1,.627.73,1.222,1.222,0,0,1-.067.95l-2,4.01a1.239,1.239,0,0,1-1.12.69,1.13,1.13,0,0,1-.254-0.06l-5.677,9.46a1.249,1.249,0,0,1-1.073.61h-5.231l-1.215,2.43-2.237-1.12,1.56-3.12a1.239,1.239,0,0,1,1.119-.69h5.3l5.176-8.63-0.189-.1a1.241,1.241,0,0,1-.56-1.67,1.248,1.248,0,0,1,1.678-.56l1.049,0.52,0.883-1.77-13.775-6.89-0.882,1.77,0.884,0.44a1.253,1.253,0,0,1,.56,1.68,1.23,1.23,0,0,1-1.3.66l-4.377,9.64,2.557,3.41a1.242,1.242,0,0,1,.118,1.31l-1.56,3.12-2.238-1.12,1.215-2.43-2.539-3.39a1.235,1.235,0,0,1-.137-1.26l4.689-10.33-0.108-.05A1.259,1.259,0,0,1,537.3,1525.97Zm1.568,24.71-6-3.43-2.391,3.11a1.248,1.248,0,0,1-.992.49h-3.252v-2.5h2.637l2.108-2.74a2.228,2.228,0,0,1,2.941-.64l5.906,3.38h12.677a5.255,5.255,0,0,1,5.254,5.25v0.75H562.5a1.229,1.229,0,0,1,.884.37l0.635,0.63h2.234v-3.5h-2.234l-0.635.63a1.229,1.229,0,0,1-.884.37h-3.252v-2.5h2.734l0.634-.64a1.266,1.266,0,0,1,.885-0.36h4a1.251,1.251,0,0,1,1.251,1.25v6a1.26,1.26,0,0,1-1.251,1.26h-4a1.233,1.233,0,0,1-.885-0.37l-0.634-.64h-4.235v1.51H559.5a5.255,5.255,0,0,1,5.254,5.25,1.251,1.251,0,0,1-1.251,1.25h-1.934a3.761,3.761,0,0,0-3.54,5.01l3.651,10.34a1.254,1.254,0,0,1-.158,1.14,1.077,1.077,0,0,1-.357.32l0.522,1.57a1.253,1.253,0,0,1-.791,1.58,1.34,1.34,0,0,1-.395.07,1.256,1.256,0,0,1-1.187-.86l-0.715-2.15h-0.1a1.25,1.25,0,1,1,0-2.5h0.234l-1.237-3.5h-1a1.255,1.255,0,0,1,0-2.51h0.115l-0.943-2.67a4.964,4.964,0,0,1-.2-0.83h-0.975a1.25,1.25,0,1,1,0-2.5h0.974a6.266,6.266,0,0,1,.993-2.37,6.178,6.178,0,0,1,5.106-2.64h0.382a2.759,2.759,0,0,0-2.451-1.5h-5a1.25,1.25,0,1,1,0-2.5h0.751v-4.76a2.751,2.751,0,0,0-2.752-2.75H539.484A1.235,1.235,0,0,1,538.864,1550.68Zm2.691,11.18h-0.07a1.25,1.25,0,1,1,0-2.5h1a1.252,1.252,0,0,1,1.2.89l1.376,4.59a10.692,10.692,0,0,1-1.034,8.53h1.02a3.253,3.253,0,0,1,3.085,2.23l1.261,3.78h4.1a1.242,1.242,0,0,1,1.186.86l1,3a1.255,1.255,0,0,1-.791,1.58,1.346,1.346,0,0,1-.4.07,1.255,1.255,0,0,1-1.186-.86l-0.715-2.15h-4.1a1.245,1.245,0,0,1-1.186-.85l-1.545-4.64a0.744,0.744,0,0,0-.713-0.51h-3.561a1.252,1.252,0,0,1-1.156-.78,1.239,1.239,0,0,1,.272-1.36,8.217,8.217,0,0,0,2.063-8.18Zm-32.093-9.01a1.25,1.25,0,1,1,0-2.5h1.695c1.45-.76,3.339-1.96,4.177-2.51a3.23,3.23,0,0,1,3.135-2.5h4a1.251,1.251,0,0,1,1.251,1.25v12.77h6.5v-3.76a4.253,4.253,0,0,1,8.506,0v12.6a7.687,7.687,0,0,1-6.408,7.6,7.475,7.475,0,0,1-.843.08h0a1.258,1.258,0,0,1-1.073-1.9c2.619-4.36-.019-9.75-0.046-9.81a1.222,1.222,0,0,1-.132-0.56v-1.75h-6.5v1.75a1.251,1.251,0,0,1-1.251,1.25h-4a3.229,3.229,0,0,1-3.135-2.5c-0.838-.54-2.727-1.75-4.177-2.5h-1.695a1.25,1.25,0,1,1,0-2.5h1.109a1.027,1.027,0,0,1,.086-0.19c0.416-.68.361-2.88-0.1-4.32h-1.1Zm23.267,10.48a14.6,14.6,0,0,1,.917,9.39,5.279,5.279,0,0,0,2.585-4.52v-12.6a1.751,1.751,0,0,0-3.5,0v7.73Zm-19.707-5.31c0.738,0.41,1.514.88,2.194,1.3v-1.71a1.251,1.251,0,1,1,2.5,0v4a0.754,0.754,0,0,0,.751.75h2.752v-14.52h-2.752a0.756,0.756,0,0,0-.751.76v2a1.251,1.251,0,0,1-1.251,1.25,1.231,1.231,0,0,1-1.2-1c-0.706.44-1.517,0.93-2.286,1.36A10.008,10.008,0,0,1,513.022,1558.02Z" transform="translate(-508.219 -1520.31)"/>
</svg>

