<svg xmlns="http://www.w3.org/2000/svg" width="68.031" height="68.18" viewBox="0 0 68.031 68.18">
  <defs>
    <style>
      .cls-1 {
        fill: #121212;
        fill-rule: evenodd;
      }
    </style>
  </defs>
  <path id="U6.svg" class="cls-1" d="M524.34,1775.3a31.816,31.816,0,0,1-10.432-9.63,1.251,1.251,0,0,1,2.06-1.42,29.324,29.324,0,0,0,9.623,8.88,29.786,29.786,0,0,0,29.787-51.59,29.3,29.3,0,0,0-12.167-3.86,1.26,1.26,0,0,1-1.131-1.36,1.258,1.258,0,0,1,1.358-1.14,31.932,31.932,0,0,1,13.192,4.19A32.291,32.291,0,0,1,524.34,1775.3Zm5.5-31.51a2.252,2.252,0,1,1,3.074-.83A2.258,2.258,0,0,1,529.837,1743.79Zm21.251,9.67a2.249,2.249,0,1,1-.822-3.08A2.257,2.257,0,0,1,551.088,1753.46Zm-7.545-15.92a2.249,2.249,0,1,1,.821,3.08A2.26,2.26,0,0,1,543.543,1737.54Zm-6.117,19.59a2.249,2.249,0,1,1-.821-3.07A2.251,2.251,0,0,1,537.426,1757.13Zm-1.486-12.42a5.248,5.248,0,1,1,1.916,7.18A5.265,5.265,0,0,1,535.94,1744.71Zm3.168,5.01a2.754,2.754,0,1,0-1-3.76A2.747,2.747,0,0,0,539.108,1749.72Zm7.33-22.27a1.234,1.234,0,0,1-.582-0.76,1.256,1.256,0,0,1,.885-1.53l7.332-1.97a1.247,1.247,0,1,1,.645,2.41l-7.332,1.98A1.258,1.258,0,0,1,546.438,1727.45Zm-2.378,47.67a1.242,1.242,0,0,1-.456-1.7l3.5-6.07a1.25,1.25,0,1,1,2.164,1.25l-3.5,6.07A1.251,1.251,0,0,1,544.06,1775.12Zm17.505-20.54,1.958,7.34a1.25,1.25,0,1,1-2.414.65l-1.959-7.34A1.25,1.25,0,0,1,561.565,1754.58ZM558.8,1737.1a1.254,1.254,0,0,1,1.708-.46l6.925,4a1.253,1.253,0,0,1-1.252,2.17l-6.924-4A1.254,1.254,0,0,1,558.8,1737.1Zm-25.418,29.88a1.252,1.252,0,0,1-.885,1.53l-7.332,1.98a1.252,1.252,0,0,1-.645-2.42l7.332-1.97A1.244,1.244,0,0,1,533.382,1766.98Zm-8-11.7a1.259,1.259,0,0,1,1.721.4,15.769,15.769,0,1,0,13.922-24.1,1.248,1.248,0,0,1-1.206-1.29,1.211,1.211,0,0,1,.395-0.87,1.242,1.242,0,0,1,.9-0.34A18.272,18.272,0,1,1,524.983,1757,1.251,1.251,0,0,1,525.386,1755.28Zm13.894-31.34-1.578,2.73a7.2,7.2,0,0,1-4.4,3.38l-2.563.69-9.494,16.45,0.684,2.56a7.229,7.229,0,0,1-.728,5.51l-1.578,2.73a2.234,2.234,0,0,1-1.174.99l-6.111,2.26a3.231,3.231,0,0,1-2.746-.24l-3.275-1.89A3.252,3.252,0,0,1,504.7,1756l1.1-11.9a6.316,6.316,0,0,1,.813-2.56l11.917-20.64a6.284,6.284,0,0,1,1.808-1.98l9.759-6.9a3.26,3.26,0,0,1,3.5-.17l3.275,1.9a3.213,3.213,0,0,1,1.576,2.26l1.1,6.42A2.273,2.273,0,0,1,539.28,1723.94Zm-2.209-1.17-1.089-6.34a0.741,0.741,0,0,0-.363-0.52l-3.275-1.89a0.759,0.759,0,0,0-.807.04l-9.759,6.9a3.724,3.724,0,0,0-1.085,1.19l-11.917,20.64a3.827,3.827,0,0,0-.488,1.54l-1.1,11.89a0.741,0.741,0,0,0,.371.72l3.275,1.89a0.711,0.711,0,0,0,.634.06l6.027-2.22,1.533-2.66a4.731,4.731,0,0,0,.477-3.61l-0.585-2.19-1.333-.08a1.189,1.189,0,0,1-.549-0.17,1.228,1.228,0,0,1-.623-1.15,1.267,1.267,0,0,1,.419-0.87,1.247,1.247,0,0,1,.905-0.31l1.46,0.09,9.239-16-0.805-1.23a1.248,1.248,0,0,1,1.3-1.91,1.207,1.207,0,0,1,.793.53l0.734,1.12,2.193-.59a4.735,4.735,0,0,0,2.886-2.22Z" transform="translate(-504.688 -1711.41)"/>
</svg>

