<svg xmlns="http://www.w3.org/2000/svg" width="64" height="64" viewBox="0 0 64 64"><path d="M48.932 33.808c-.47-.477-3.629-3.42-4.725-4.515-.418-.418-2.264-2.303-2.721-2.751a16.115 16.115 0 0 0-2.33-1.983c-2.284-1.52-4.57-1.51-8.515.008-6.025 2.317-6.51 2.317-7.213.562-.119-.299.483-1.323 1.796-2.635a28.302 28.302 0 0 1 1.877-1.697 50.23 50.23 0 0 1 2.722-2.103c.326-.235.628-.448.898-.634l.087-.06H40a4.378 4.378 0 0 1 .486.038 4.962 4.962 0 0 1 1.116.265 2.142 2.142 0 0 1 1.066.752c.081.122.448.694.55.85.262.397.5.73.763 1.056A7.82 7.82 0 0 0 50.5 24H52a1 1 0 0 0 0-2h-1.5a5.843 5.843 0 0 1-4.962-2.294c-.217-.27-.42-.554-.65-.902-.092-.14-.462-.718-.556-.859a4.066 4.066 0 0 0-2.028-1.515A6.76 6.76 0 0 0 40 16H24.5c-2.709 0-4.887 1.195-6.982 3.329-.45.458-1.463 1.617-1.958 2.171H13a1 1 0 0 0 0 2h3.414l.293-.293c.26-.26 1.735-1.964 2.238-2.477C20.699 18.944 22.419 18 24.5 18h2.91c-.542.413-1.076.834-1.589 1.26a30.217 30.217 0 0 0-2.012 1.82c-1.887 1.887-2.787 3.417-2.238 4.791 1.298 3.245 2.813 3.245 9.788.562 3.396-1.306 5.03-1.314 6.69-.209a14.375 14.375 0 0 1 2.036 1.744c.44.433 2.277 2.308 2.708 2.74 1.131 1.13 4.284 4.066 4.715 4.504 1.054 1.07 1.43 1.693 1.387 2.12a1.759 1.759 0 0 1-.602.961c-.42.42-1.047 1.032-1.836 1.795a.949.949 0 0 0-.09-.136l-4.248-4.247a1 1 0 0 0-1.414 1.414l4.247 4.247a.924.924 0 0 0 .105.07 979.51 979.51 0 0 1-2.091 1.998l-.087.083-1.51 1.438-.003-.003-4.247-4.247a1 1 0 0 0-1.414 1.414l4.213 4.213-1.21 1.148a2134.16 2134.16 0 0 1-1.895 1.793 1.518 1.518 0 0 1-.328.226 2.527 2.527 0 0 1-2.747-.327 2.621 2.621 0 0 0 .722-2.452 11.183 11.183 0 0 0-1.639-2.688l-.256-.348a76.904 76.904 0 0 0-1.787-2.312l-.367-.435a1144.003 1144.003 0 0 1-3.752-4.464l-.08-.096a282.151 282.151 0 0 1-3.298-4.002c-1.482-1.852-3.253-2.017-4.78-1.115a3.632 3.632 0 0 0-.708.533l-4 4a5.83 5.83 0 0 0-1.22 1.707H7v2h5.298a3.095 3.095 0 0 0 .505 1.163 2.845 2.845 0 0 0 .597.637l.633.462a4394.566 4394.566 0 0 0 6.64 4.84l.06.042c3.977 2.891 6.573 4.762 7.212 5.188a2.533 2.533 0 0 0 2.589.093 6.983 6.983 0 0 0 1.792-1.31 4.618 4.618 0 0 0 5.111.643 3.388 3.388 0 0 0 .77-.551l.502-.473a2142.003 2142.003 0 0 0 5.55-5.269l.087-.083c2.55-2.432 4.426-4.24 5.361-5.175a4.498 4.498 0 0 0 .886-1.207H57v-2h-6.209a6.637 6.637 0 0 0-1.859-2.692zm-33.72 6.34l-.622-.455a1.176 1.176 0 0 1-.15-.18c-.385-.547-.323-1.216.767-2.306l4-4a1.778 1.778 0 0 1 .311-.225c.727-.429 1.393-.367 2.201.643.497.621 1.235 1.52 2.152 2.625a.945.945 0 0 0-.132.082l-5.963 5.686-.921-.672-1.643-1.199zm6.638 4.836l-2.431-1.77 5.684-5.42c.01-.01.014-.024.025-.035a1047.414 1047.414 0 0 0 3.272 3.896l-4.838 4.572-1.654-1.2zm7.838 5.128c-.316.148-.491.15-.633.056-.413-.275-1.78-1.253-3.844-2.747l4.465-4.22.087.11c.408.52.816 1.052 1.195 1.564q.127.171.247.336a12.861 12.861 0 0 1 1.335 2.069.856.856 0 0 1-.247.513c-.109.109-.875.918-1.126 1.166a5.833 5.833 0 0 1-1.479 1.153zM55 23a1 1 0 1 0 2 0 1 1 0 1 0-2 0zm-47 .5h1a1 1 0 0 0 0-2H8a1 1 0 0 0 0 2z"/></svg>