<svg xmlns="http://www.w3.org/2000/svg" width="64" height="64" viewBox="0 0 64 64"><path d="M51.5 27.564a2.089 2.089 0 0 0-2.084-2.082h-1.645a3.532 3.532 0 0 0-2.301.809l-.746-2.74a6.761 6.761 0 0 0-6.593-5.035h-.366l-.506-1.863a1.749 1.749 0 0 0-1.706-1.303h-7.105a1.751 1.751 0 0 0-1.705 1.303l-.51 1.865h-.366a6.759 6.759 0 0 0-6.59 5.036l-.747 2.74a3.53 3.53 0 0 0-2.301-.81h-1.646a2.083 2.083 0 1 0 0 4.166h2.104a5.88 5.88 0 0 0-2.604 4.884v6.967a2.722 2.722 0 0 0 2.217 2.67v.815a3.667 3.667 0 0 0 7.333 0v-.77h16.732v.77a3.667 3.667 0 0 0 7.334-.003v-.813a2.721 2.721 0 0 0 2.216-2.671v-6.967a5.881 5.881 0 0 0-2.602-4.883h2.103a2.086 2.086 0 0 0 2.084-2.085zm-5.528 2.487a4.88 4.88 0 0 1 2.943 4.481V41.5a1.718 1.718 0 0 1-1.716 1.717.5.5 0 0 0-.5.5v1.267a2.67 2.67 0 0 1-2.666 2.666 2.701 2.701 0 0 1-2.668-2.664v-1.268a.5.5 0 0 0-.5-.5H23.133a.5.5 0 0 0-.5.5v1.268a2.702 2.702 0 0 1-2.667 2.665 2.669 2.669 0 0 1-2.666-2.664v-1.268a.5.5 0 0 0-.5-.5 1.719 1.719 0 0 1-1.716-1.717v-6.967a4.882 4.882 0 0 1 2.944-4.481.5.5 0 0 0 .156-.812l-.257-.258a1.111 1.111 0 0 0-.802-.333h-2.541a1.083 1.083 0 1 1 0-2.166h1.645a2.547 2.547 0 0 1 1.887.783l.323.322a.5.5 0 0 0 .835-.223l.967-3.55a5.77 5.77 0 0 1 5.626-4.298h.749a.5.5 0 0 0 .482-.369l.61-2.232a.751.751 0 0 1 .74-.567h7.105a.751.751 0 0 1 .741.565l.606 2.232a.5.5 0 0 0 .483.37h.748a5.772 5.772 0 0 1 5.628 4.297l.967 3.55a.5.5 0 0 0 .835.222l.324-.322a2.547 2.547 0 0 1 1.886-.782h1.645a1.086 1.086 0 0 1 1.084 1.083 1.098 1.098 0 0 1-1.084 1.084h-2.542a1.122 1.122 0 0 0-.803.333l-.256.257a.5.5 0 0 0 .157.812zM35.8 36.886h-7.602a2.083 2.083 0 1 0 0 4.167H35.8a2.083 2.083 0 0 0 0-4.167zm0 3.167h-7.602a1.087 1.087 0 0 1-1.084-1.083 1.098 1.098 0 0 1 1.084-1.084H35.8a1.097 1.097 0 0 1 1.082 1.083 1.085 1.085 0 0 1-1.082 1.084zM21.55 29.65h20.9a.5.5 0 0 0 .482-.631l-1.263-4.635a3.633 3.633 0 0 0-3.54-2.7h-12.26a3.626 3.626 0 0 0-3.537 2.701l-1.264 4.634a.5.5 0 0 0 .483.631zm1.746-5.003a2.637 2.637 0 0 1 2.572-1.963H38.13a2.643 2.643 0 0 1 2.574 1.964l1.09 4.002h-19.59zm-1.888 6.624a3.262 3.262 0 1 0 3.262 3.263 3.267 3.267 0 0 0-3.262-3.263zm0 5.525a2.262 2.262 0 1 1 2.262-2.262 2.265 2.265 0 0 1-2.262 2.262zm21.185-5.525a3.262 3.262 0 1 0 3.262 3.263 3.267 3.267 0 0 0-3.262-3.263zm0 5.525a2.262 2.262 0 1 1 2.262-2.262 2.265 2.265 0 0 1-2.262 2.262z" class="a"/></svg>