<svg xmlns="http://www.w3.org/2000/svg" width="65" height="65" viewBox="0 0 65 65" id="svg-1">
  <defs id="defs-2">
    <style id="style-3">
	.cls-1 { fill-rule: evenodd; }
</style>
  </defs>
  <path id="_6.svg" data-name="6.svg" class="cls-1" d="M910.068,529.664H896.75a0.952,0.952,0,0,0,0,1.9h13.318A1.029,1.029,0,0,1,911.1,532.6v36.666a1.029,1.029,0,0,1-1.028,1.027H850.932a1.029,1.029,0,0,1-1.028-1.027V532.6a1.029,1.029,0,0,1,1.028-1.028h20.919v1.9h-19.09a0.952,0.952,0,0,0-.952.952v25.158a0.952,0.952,0,1,0,1.9,0V535.377h18.138v5.108l-4.076,1.947a0.961,0.961,0,0,0-.542.86V558.82a0.952,0.952,0,0,0,.542.859l12.314,5.884a0.969,0.969,0,0,0,.822,0l6.923-3.308a0.953,0.953,0,0,0-.822-1.719l-5.56,2.657V549.775l10.41-4.973V558.22l-1.414.675a0.952,0.952,0,1,0,.821,1.718l1.956-.934a0.952,0.952,0,0,0,.542-0.859V543.292a0.96,0.96,0,0,0-.542-0.86l-4.076-1.947v-5.108h18.138v31.1H853.713v-2.835a0.952,0.952,0,0,0-1.9,0v3.788a0.952,0.952,0,0,0,.952.952h55.478a0.952,0.952,0,0,0,.952-0.952V534.425a0.952,0.952,0,0,0-.952-0.952h-19.09v-1.9h3.539a0.952,0.952,0,1,0,0-1.9h-3.539v-1.9h8.537a0.952,0.952,0,0,0,.952-0.952v-2.259a2.856,2.856,0,1,0-1.9,0v1.306H888.2a0.952,0.952,0,0,0-.953.953v2.856h-5.792v-5.115a2.856,2.856,0,1,0-1.9,0v5.115h-5.792v-2.856a0.952,0.952,0,0,0-.953-0.953h-8.537v-1.306a2.857,2.857,0,1,0-1.9,0v2.259a0.952,0.952,0,0,0,.952.952h8.537v1.9H850.932A2.935,2.935,0,0,0,848,532.6v36.666a2.935,2.935,0,0,0,2.932,2.931h20.643a9.076,9.076,0,0,1-3.406,6.094h-4.046a2.857,2.857,0,0,0,0,5.713h32.754a2.857,2.857,0,0,0,0-5.713h-4.043a9.163,9.163,0,0,1-3.408-6.094h20.642A2.935,2.935,0,0,0,913,569.262V532.6A2.935,2.935,0,0,0,910.068,529.664Zm-12.382-8.76a0.953,0.953,0,1,1-.952.952A0.953,0.953,0,0,1,897.686,520.9Zm-17.186,0a0.953,0.953,0,1,1-.952.952A0.953,0.953,0,0,1,880.5,520.9Zm-17.186,0a0.953,0.953,0,1,1-.952.952A0.953,0.953,0,0,1,863.314,520.9Zm10.442,14.473h5.792v1.431l-5.792,2.767v-4.2Zm16.85,7.915L880.5,548.119l-10.106-4.827,10.106-4.828Zm-21.468,1.51,10.41,4.973v13.418l-10.41-4.973V544.8Zm18.106-5.227-5.792-2.767v-1.431h5.792v4.2Zm0-8.007v1.9h-5.792v-1.9h5.792Zm-7.7,0v1.9h-5.792v-1.9h5.792Zm18.281,49.576a0.953,0.953,0,0,1-.952.952H864.123a0.953,0.953,0,0,1,0-1.9h32.754A0.953,0.953,0,0,1,897.829,581.144Zm-7.726-2.857H870.9a10.736,10.736,0,0,0,2.592-6.094h14.022A10.736,10.736,0,0,0,890.1,578.287Z" transform="translate(-848 -519)" fill="#444444" fill-opacity="1" type="solidColor"></path>
</svg>