<svg xmlns="http://www.w3.org/2000/svg" width="65" height="65" viewBox="0 0 65 65" id="svg-1">
  <defs id="defs-2">
    <style id="style-3">
	.cls-1 { fill-rule: evenodd; }
</style>
  </defs>
  <path id="_5.svg" data-name="5.svg" class="cls-1" d="M787.5,519A32.5,32.5,0,1,0,820,551.5,32.5,32.5,0,0,0,787.5,519Zm29.159,40.835-2.036-.662-0.67,2.059L816,561.9a30.291,30.291,0,0,1-3.343,6.536l-1.733-1.256-1.274,1.753,1.72,1.25a30.653,30.653,0,0,1-5.185,5.192l-1.25-1.72-1.753,1.274,1.257,1.733A30.3,30.3,0,0,1,797.9,580l-0.664-2.044-2.058.67,0.661,2.036a30.114,30.114,0,0,1-7.256,1.147v-2.139h-2.166v2.139a30.139,30.139,0,0,1-7.252-1.147l0.662-2.036-2.059-.67L777.1,580a30.322,30.322,0,0,1-6.537-3.343l1.257-1.733-1.753-1.274-1.25,1.72a30.622,30.622,0,0,1-5.189-5.189l1.72-1.25-1.274-1.753-1.733,1.256a30.331,30.331,0,0,1-3.333-6.531l2.045-.664-0.671-2.058-2.036.662a30.186,30.186,0,0,1-1.152-7.257h2.139v-2.166h-2.139a30.139,30.139,0,0,1,1.147-7.252l2.036,0.662,0.67-2.059-2.039-.668a30.367,30.367,0,0,1,3.343-6.537l1.734,1.257,1.274-1.753-1.73-1.249a30.549,30.549,0,0,1,5.189-5.189l1.25,1.72,1.753-1.274-1.257-1.733a30.349,30.349,0,0,1,6.536-3.334l0.664,2.045,2.058-.671-0.662-2.036a30.186,30.186,0,0,1,7.257-1.152v2.139h2.166v-2.139a30.139,30.139,0,0,1,7.252,1.147l-0.662,2.036,2.059,0.67,0.668-2.039a30.367,30.367,0,0,1,6.537,3.343l-1.257,1.734,1.753,1.274,1.25-1.72a30.549,30.549,0,0,1,5.189,5.189l-1.72,1.25,1.274,1.753,1.733-1.257A30.313,30.313,0,0,1,816,541.1l-2.044.664,0.67,2.058,2.036-.662a30.13,30.13,0,0,1,1.147,7.257h-2.139v2.166h2.139A30.139,30.139,0,0,1,816.659,559.835ZM787.5,527.667A23.833,23.833,0,1,0,811.333,551.5,23.832,23.832,0,0,0,787.5,527.667Zm0,45.5A21.667,21.667,0,1,1,809.167,551.5,21.667,21.667,0,0,1,787.5,573.167Zm0-40.084A18.417,18.417,0,1,0,805.917,551.5,18.418,18.418,0,0,0,787.5,533.083Zm13.931,10.094a16.109,16.109,0,0,1,2.245,6.871l-6.785-.548a1.083,1.083,0,0,1-.616-1.9Zm-10.314-7.507-2.617,6.284a1.083,1.083,0,0,1-2,0l-2.617-6.284A15.785,15.785,0,0,1,791.117,535.67Zm-17.548,7.506,5.156,4.424a1.082,1.082,0,0,1-.618,1.9l-6.784.548A16.11,16.11,0,0,1,773.569,543.176Zm9.123,16.637-1.573,6.628a16.315,16.315,0,0,1-5.84-4.266h0l5.8-3.537A1.083,1.083,0,0,1,782.692,559.813Zm11.189,6.628h0l-1.577-6.628a1.084,1.084,0,0,1,1.619-1.175l5.8,3.537A16.325,16.325,0,0,1,793.881,566.441Zm1.17-9.653a3.25,3.25,0,0,0-4.855,3.527l1.625,6.834a15.851,15.851,0,0,1-8.645,0h0l1.625-6.834a3.249,3.249,0,0,0-4.854-3.526l-6,3.659a16.133,16.133,0,0,1-2.663-8.223l7-.566a3.25,3.25,0,0,0,1.85-5.706l-5.33-4.571a16.3,16.3,0,0,1,6.993-5.08l2.7,6.482a3.25,3.25,0,0,0,6,0l2.7-6.482a16.306,16.306,0,0,1,6.993,5.08l-5.323,4.571a3.25,3.25,0,0,0,1.853,5.706l7,0.566a16.141,16.141,0,0,1-2.662,8.223Zm-7.551-9.621a4.333,4.333,0,1,0,4.333,4.333A4.333,4.333,0,0,0,787.5,547.167Zm0,6.5a2.167,2.167,0,1,1,2.167-2.167A2.167,2.167,0,0,1,787.5,553.667Z" transform="translate(-755 -519)" fill="#444444" fill-opacity="1" type="solidColor"></path>
</svg>