<svg xmlns="http://www.w3.org/2000/svg" width="72" height="59" viewBox="0 0 72 59" id="svg-1">
  <defs id="defs-2">
    <style id="style-3">
	.cls-1 { fill-rule: evenodd; }
</style>
  </defs>
  <path id="_9.svg" data-name="9.svg" class="cls-1" d="M688.742,622.2a3.471,3.471,0,1,0,3.484,3.471A3.481,3.481,0,0,0,688.742,622.2Zm0,4.628a1.157,1.157,0,1,1,1.161-1.157A1.16,1.16,0,0,1,688.742,626.824Zm51.578-5.785L725.9,606.678a2.337,2.337,0,0,0-1.642-.678h-3.1a2.339,2.339,0,0,0-1.642.678l-13.355,13.3v5.685h4.165l1.161,1.157L705,633.286l-6.487-6.462,1.161-1.157h4.165v-5.685l-13.355-13.3a2.339,2.339,0,0,0-1.642-.678h-3.1a2.337,2.337,0,0,0-1.642.678L669.68,621.039a2.3,2.3,0,0,0-.68,1.636v3.091a2.3,2.3,0,0,0,.68,1.636l13.355,13.3h5.707v-4.149L689.9,635.4l6.487,6.462-4.677,4.659c-0.215-.014-0.43-0.032-0.648-0.032a9.255,9.255,0,1,0,9.29,9.255c0-.217-0.018-0.431-0.032-0.646L705,650.44l4.677,4.659c-0.014.215-.032,0.429-0.032,0.646a9.291,9.291,0,1,0,9.29-9.255c-0.218,0-.433.018-0.648,0.032l-4.677-4.659L720.1,635.4l1.161,1.156v4.149h5.707l13.355-13.3a2.3,2.3,0,0,0,.68-1.636v-3.091A2.3,2.3,0,0,0,740.32,621.039Zm-16.059-12.725,14.416,14.361v3.091l-0.29.289L720.868,608.6l0.29-.289h3.1Zm12.484,19.377-1.842,1.835-17.519-17.452,1.842-1.835Zm-23.616.768,1.842,1.835-6.487,6.462-1.842-1.834Zm-20.513-16.385L675.1,629.526l-1.842-1.835,17.519-17.452Zm-21.293,10.6,14.416-14.361h3.1l0.29,0.289-17.519,17.452-0.29-.289v-3.091Zm15.1,12.924v2.793H684l-7.258-7.23,17.519-17.453,7.258,7.231v2.413h-2.8Zm11.613,7.9,1.842,1.834-3.122,3.11a9.268,9.268,0,0,0-2.352-1.326Zm-6.967,19.187a6.941,6.941,0,1,1,6.967-6.941A6.961,6.961,0,0,1,691.065,662.686Zm8.66-10.263a9.28,9.28,0,0,0-1.33-2.344l3.121-3.11,1.842,1.835Zm26.178,3.322a6.968,6.968,0,1,1-6.968-6.941A6.961,6.961,0,0,1,725.9,655.745Zm-12.655-7.3-8.588-8.555-1.642,1.636,8.587,8.555a9.185,9.185,0,0,0-1.33,2.344l-18.73-18.658,1.842-1.835,8.469,8.437,1.642-1.636-8.469-8.437,1.842-1.835L715.6,647.117A9.315,9.315,0,0,0,713.248,648.443Zm-1.28-8.216-1.842-1.835,6.487-6.462,1.842,1.835ZM726,638.392h-2.422V635.6l-12.294-12.246h-2.8V620.94l7.258-7.231,17.519,17.453Zm-4.745-16.2a3.471,3.471,0,1,0,3.484,3.471A3.482,3.482,0,0,0,721.258,622.2Zm0,4.628a1.157,1.157,0,1,1,1.161-1.157A1.16,1.16,0,0,1,721.258,626.824Zm-30.193,24.294a4.614,4.614,0,0,0-1.993.459l1,2.089a2.329,2.329,0,0,1,3.318,2.079,2.277,2.277,0,0,1-.235.989l2.1,1a4.578,4.578,0,0,0,.461-1.985A4.641,4.641,0,0,0,691.065,651.118Zm-2.323,4.627a2.277,2.277,0,0,1,.235-0.989l-2.1-1a4.578,4.578,0,0,0-.461,1.985,4.627,4.627,0,0,0,6.638,4.168l-1-2.089A2.328,2.328,0,0,1,688.742,655.745Zm28.106,0.989a2.277,2.277,0,0,1-.235-0.989,2.329,2.329,0,0,1,3.317-2.079l1-2.089a4.612,4.612,0,0,0-6.176,6.154Zm1.093,1.09-1,2.089a4.612,4.612,0,0,0,6.176-6.154l-2.1,1a2.284,2.284,0,0,1,.235.99A2.327,2.327,0,0,1,717.941,657.824Z" transform="translate(-669 -606)" fill="#444444" fill-opacity="1" type="solidColor"></path>
</svg>