<svg xmlns="http://www.w3.org/2000/svg" width="65" height="65" viewBox="0 0 65 65" id="svg-1">
  <defs id="defs-2">
    <style id="style-3">
	.cls-1 { fill-rule: evenodd; }
</style>
  </defs>
  <path id="_4.svg" data-name="4.svg" class="cls-1" d="M701.167,563.419v-4.333h6.5V556.92h-6.5V551.5a1.083,1.083,0,0,0-1.084-1.083h-5.416v-6.5a5.423,5.423,0,0,0-5.417-5.416H678.417A5.423,5.423,0,0,0,673,543.921v34.663A5.423,5.423,0,0,0,678.417,584H689.25a5.423,5.423,0,0,0,5.417-5.416v-6.5h5.416A1.084,1.084,0,0,0,701.167,571v-5.416h8.666v-2.166h-8.666ZM692.5,578.584a3.25,3.25,0,0,1-3.25,3.25v-2.167h-2.167v2.167h-8.666a3.25,3.25,0,0,1-3.25-3.25V543.921a3.25,3.25,0,0,1,3.25-3.25v39h2.166v-39h6.5v32.5h2.167v-32.5a3.25,3.25,0,0,1,3.25,3.25v34.663Zm6.5-8.666h-4.333V552.587H699v17.331Zm-11.917,5.416h2.167V577.5h-2.167v-2.167Zm49.834-21.664h-6.5a1.083,1.083,0,0,0-1.084,1.083v2.167h-6.5v2.166h6.5v4.333h-8.666v2.166h8.666v2.167a1.083,1.083,0,0,0,1.084,1.083h6.5A1.083,1.083,0,0,0,738,567.752v-13A1.083,1.083,0,0,0,736.917,553.67Zm-1.084,13H731.5V555.836h4.333v10.833Zm-15.166-34.663v-1.084a5.42,5.42,0,0,0-2.39-4.49,4.333,4.333,0,1,0-6.128-.074c0.024,0.025.049,0.05,0.074,0.074a5.42,5.42,0,0,0-2.39,4.49v1.083h-2.166v2.167h15.166v-2.167h-2.166Zm-5.417-10.833a2.167,2.167,0,1,1-2.167,2.167A2.167,2.167,0,0,1,715.25,521.173Zm3.25,10.833H712v-1.084a3.25,3.25,0,0,1,6.5,0v1.084ZM707.667,550.42v2.167h2.166v1.083a5.418,5.418,0,0,0,2.39,4.49,4.333,4.333,0,1,0,6.128.074c-0.024-.025-0.049-0.05-0.074-0.074a5.416,5.416,0,0,0,2.39-4.49v-1.083h2.166V550.42H707.667Zm7.583,13a2.167,2.167,0,1,1,2.167-2.167A2.167,2.167,0,0,1,715.25,563.419Zm3.25-9.749a3.25,3.25,0,1,1-6.5,0v-1.083h6.5v1.083Zm-10.833-16.248v2.166l15.166-1.083v-2.167Zm0,4.333v2.166l15.166-1.083v-2.167Zm0,4.332v2.167l15.166-1.083V545Zm6.5-17.331h2.166v2.166h-2.166v-2.166Zm0,24.914h2.166v2.166h-2.166V553.67Z" transform="translate(-673 -519)" fill="#444444" fill-opacity="1" type="solidColor"></path>
</svg>