<svg xmlns="http://www.w3.org/2000/svg" width="64" height="64" viewBox="0 0 64 64"><path d="M14 13c-3.9 0-7 3.1-7 7s3.1 7 7 7 7-3.1 7-7-3.1-7-7-7zm0 12c-2.8 0-5-2.2-5-5s2.2-5 5-5c1.4 0 2.6.6 3.5 1.4l-3.4 3.4-1.4-1.4c-.4-.4-1-.4-1.4 0-.4.4-.4 1 0 1.4l2.1 2.1c.2.2.5.3.7.3.3 0 .5-.1.7-.3l3.8-3.8c.2.6.4 1.2.4 1.9 0 2.8-2.2 5-5 5zm36-3c0-.6-.4-1-1-1H32c-.5 0-1 .4-1 1s.4 1 1 1h17c.5 0 1-.4 1-1zm-14 4a1 1 0 1 0 2 0 1 1 0 1 0-2 0zm-11-3h3c.6 0 1-.4 1-1s-.4-1-1-1h-3c-.6 0-1 .4-1 1s.4 1 1 1zm0-4h14c.6 0 1-.4 1-1s-.4-1-1-1H25c-.6 0-1 .4-1 1s.4 1 1 1zm27-4h4c.5 0 1-.4 1-1s-.4-1-1-1h-4c-.5 0-1 .4-1 1s.4 1 1 1zm4 6h-3c-.6 0-1 .4-1 1s.4 1 1 1h3c.6 0 1-.4 1-1s-.4-1-1-1zm0-4H43c-.6 0-1 .4-1 1s.5 1 1 1h13c.6 0 1-.4 1-1s-.5-1-1-1zm-21-2h13c.6 0 1-.4 1-1s-.5-1-1-1H35c-.6 0-1 .4-1 1s.5 1 1 1zm-10 0h6c.5 0 1-.4 1-1s-.4-1-1-1h-6c-.5 0-1 .4-1 1s.4 1 1 1zm0 12h8c.5 0 1-.4 1-1s-.4-1-1-1h-8c-.5 0-1 .4-1 1s.4 1 1 1zM14 37c-3.9 0-7 3.1-7 7s3.1 7 7 7 7-3.1 7-7-3.1-7-7-7zm0 12c-2.8 0-5-2.2-5-5s2.2-5 5-5c1.4 0 2.6.6 3.5 1.4l-3.4 3.4-1.4-1.4c-.4-.4-1-.4-1.4 0-.4.4-.4 1 0 1.4l2.1 2.1c.2.2.5.3.7.3.3 0 .5-.1.7-.3l3.8-3.8c.2.6.4 1.2.4 1.9 0 2.8-2.2 5-5 5zm42-4H38c-.5 0-1 .4-1 1s.4 1 1 1h18c.5 0 1-.4 1-1s-.4-1-1-1zm-31-6h15c.5 0 1-.4 1-1s-.4-1-1-1H25c-.5 0-1 .4-1 1s.4 1 1 1zm31-2H44c-.6 0-1 .4-1 1s.5 1 1 1h12c.6 0 1-.4 1-1s-.5-1-1-1zM35 50a1 1 0 1 0 2 0 1 1 0 1 0-2 0zm21-9h-7c-.6 0-1 .4-1 1s.4 1 1 1h7c.6 0 1-.4 1-1s-.4-1-1-1zm-31 2h3c.6 0 1-.4 1-1s-.4-1-1-1h-3c-.6 0-1 .4-1 1s.4 1 1 1zm9 2h-9c-.6 0-1 .4-1 1s.4 1 1 1h9c.6 0 1-.4 1-1s-.4-1-1-1zm-3-3c0 .6.5 1 1 1h13c.6 0 1-.4 1-1s-.5-1-1-1H32c-.6 0-1 .4-1 1zm1 7h-7c-.6 0-1 .4-1 1s.4 1 1 1h7c.6 0 1-.4 1-1s-.4-1-1-1z"/></svg>