<svg width="26" height="26" viewBox="0 0 26 26" fill="none" xmlns="http://www.w3.org/2000/svg">
<path d="M24.5699 17.8047L19.1012 15.461C18.8675 15.3614 18.6079 15.3404 18.3613 15.4012C18.1148 15.462 17.8946 15.6012 17.734 15.7979L15.3121 18.7569C11.5112 16.9648 8.45234 13.9059 6.66025 10.105L9.61923 7.68315C9.81634 7.52284 9.95585 7.30267 10.0166 7.05598C10.0774 6.80929 10.0562 6.54951 9.95615 6.31596L7.6124 0.847214C7.50259 0.59546 7.30838 0.389911 7.06325 0.266012C6.81813 0.142112 6.53745 0.107627 6.26962 0.168503L1.1915 1.34038C0.93328 1.40001 0.702897 1.5454 0.537951 1.75282C0.373004 1.96025 0.283235 2.21745 0.283295 2.48247C0.283295 15.0069 10.4347 25.1387 22.9395 25.1387C23.2046 25.1389 23.462 25.0492 23.6695 24.8842C23.877 24.7193 24.0225 24.4888 24.0821 24.2305L25.254 19.1524C25.3145 18.8833 25.2793 18.6015 25.1544 18.3555C25.0296 18.1095 24.8229 17.9148 24.5699 17.8047Z" fill="#727271"/>
</svg>
