<svg xmlns="http://www.w3.org/2000/svg" width="66" height="37" viewBox="0 0 66 37" id="svg-1">
  <defs id="defs-2">
    <style id="style-3">
	.cls-1 { fill-rule: evenodd; }
</style>
  </defs>
  <path id="_7.svg" data-name="7.svg" class="cls-1" d="M994.935,534.088a9.7,9.7,0,0,0-9.58,9.794v1.089h-4.281A12.292,12.292,0,0,0,968.936,533H948.409a12.094,12.094,0,0,0-10.761,6.643L931.4,551.777a12.7,12.7,0,0,0-1.4,5.791A12.313,12.313,0,0,0,942.161,570h26.774a12.292,12.292,0,0,0,12.138-11.971h4.282v1.089a9.7,9.7,0,0,0,9.58,9.794H996V534.088h-1.065Zm-15.967,23.48a10.159,10.159,0,0,1-10.032,10.256H942.161a10.159,10.159,0,0,1-10.032-10.256,10.487,10.487,0,0,1,1.154-4.777l6.248-12.135a9.98,9.98,0,0,1,8.878-5.48h20.526a10.159,10.159,0,0,1,10.033,10.256v12.136Zm2.129-1.715v-8.706h4.258v8.706H981.1Zm12.774,10.805a7.576,7.576,0,0,1-6.387-7.54V543.882a7.577,7.577,0,0,1,6.387-7.54v30.316Zm-4.258-26.04h2.129v2.176h-2.129v-2.176Zm0,4.353h2.129v13.058h-2.129V544.971Zm0,15.235h2.129v2.176h-2.129v-2.176ZM954.8,558.348l14.9-15.236,1.5,1.54-14.9,15.235Zm-10.641-.008L959.3,543.107l1.493,1.551-15.149,15.233Zm24.781-20.987H949.161v2.176h19.775a5.846,5.846,0,0,1,5.774,5.9v12.136a5.847,5.847,0,0,1-5.774,5.9h-4.871v2.176h4.871a8,8,0,0,0,7.9-8.079V545.432A8,8,0,0,0,968.936,537.353Zm-32.549,20.215a6.056,6.056,0,0,1,.664-2.751l6.248-12.133a5.751,5.751,0,0,1,3.972-3.023l-0.419-2.134a7.871,7.871,0,0,0-5.437,4.144L935.166,553.8a8.281,8.281,0,0,0-.908,3.763,8,8,0,0,0,7.9,8.079h19.774v-2.176H942.161A5.847,5.847,0,0,1,936.387,557.568Z" transform="translate(-930 -533)" fill="#444444" fill-opacity="1" type="solidColor"></path>
</svg>