<svg xmlns="http://www.w3.org/2000/svg" width="58.969" height="60" viewBox="0 0 58.969 60" id="svg-1">
  <defs id="defs-2">
    <style id="style-3">
	.cls-1 { fill-rule: evenodd; }
</style>
  </defs>
  <path id="_45.svg" data-name="45.svg" class="cls-1" d="M616.521,589.274l-6.423,6.364-2.861-2.829,6.433-6.361a1,1,0,0,0,.009-1.409l-0.009-.01a6.119,6.119,0,0,0-8.574,0l-6.433,6.364a3.982,3.982,0,0,0-.025,5.633l0.025,0.024,0.71,0.708a1.024,1.024,0,0,0,1.42-.012,0.989,0.989,0,0,0,.012-1.4v0l-0.71-.707a1.973,1.973,0,0,1-.039-2.791l0.039-.038,6.433-6.365a4.071,4.071,0,0,1,4.9-.617L605.1,592.1a1,1,0,0,0-.01,1.409l0.01,0.009,7.143,7.071-2.141,2.121a2.04,2.04,0,0,1-2.861,0l-0.71-.707a1.021,1.021,0,0,0-1.42.012,0.989,0.989,0,0,0-.012,1.4v0l0.71,0.707a4.067,4.067,0,0,0,5.712,0l6.433-6.363a5.952,5.952,0,0,0,.066-8.42l-0.066-.065A1.019,1.019,0,0,0,616.521,589.274Zm0,7.071-2.851,2.829-2.152-2.122,5.625-5.566a3.956,3.956,0,0,1-.622,4.861h0v0Zm-35.716,19.8a3.959,3.959,0,0,0-.053,5.6L580.8,621.8a4.068,4.068,0,0,0,5.713,0,3.981,3.981,0,0,0,.025-5.631l-0.025-.025A4.066,4.066,0,0,0,580.8,616.148Zm4.282,4.241a2.089,2.089,0,0,1-2.862,0,1.989,1.989,0,0,1-.012-2.815l0.012-.013a2.039,2.039,0,0,1,2.862,0,1.989,1.989,0,0,1,.012,2.815Zm6.706-5.224-1.89,1.873a1.016,1.016,0,0,0-.283.881,5.982,5.982,0,0,1-3.157,6.379,6.1,6.1,0,0,1-7.088-1.074,5.951,5.951,0,0,1-1.093-7.021,6.078,6.078,0,0,1,6.444-3.129,1.01,1.01,0,0,0,.9-0.278l1.889-1.871a1,1,0,0,0-.021-1.392,1.022,1.022,0,0,0-1.409-.024l-1.53,1.517a8.1,8.1,0,0,0-8.18,4.487,7.944,7.944,0,0,0,1.573,9.122,8.147,8.147,0,0,0,9.218,1.555,8,8,0,0,0,4.532-8.092l1.53-1.519a1,1,0,0,0,.009-1.41l-0.009-.009a1.021,1.021,0,0,0-1.431,0h0v0Zm2.5-33.092a1,1,0,1,0,0-2h-4.041a1,1,0,0,0-.874.5l-2.02,3.464a0.966,0.966,0,0,0,0,1l2.02,3.464a1,1,0,0,0,.874.5h4.041a1,1,0,0,0,.874-0.5l2.021-3.464a1,1,0,0,0-.369-1.359h0a1.014,1.014,0,0,0-1.376.36L593.715,587h-2.883L589.4,584.54l1.431-2.467h3.462Zm12.615,25.638a3.06,3.06,0,0,0-3.44-.577l-1.682-1.674a2.991,2.991,0,0,0-.994-3.73,3.046,3.046,0,0,0-3.878.328l-0.721.707-13.576-13.438a0.966,0.966,0,0,0-.393-0.242l-4.281-1.411a1.021,1.021,0,0,0-1.038.242,0.992,0.992,0,0,0-.251,1.023l1.431,4.243a0.971,0.971,0,0,0,.251.391L591.9,607l-0.71.707a2.982,2.982,0,0,0-.349,3.85,3.05,3.05,0,0,0,3.79.969l1.693,1.676a2.956,2.956,0,0,0,.579,3.4l2.086,2.074a1.033,1.033,0,0,0,1.442,0,1,1,0,0,0,.006-1.412l-0.006-.007-2.1-2.074a0.994,0.994,0,0,1-.012-1.406l0.012-.012,0.721-.708,9.994,9.9-0.71.706a1.018,1.018,0,0,1-1.431,0l-0.611-.606a1.024,1.024,0,0,0-1.42.012,1,1,0,0,0-.011,1.4l0.611,0.605a3.06,3.06,0,0,0,4.293,0l1.431-1.418,2.85-2.828,1.431-1.419a2.986,2.986,0,0,0,.018-4.226l-0.018-.018Zm-1.431,1.418,8.574,8.487a1,1,0,0,1,.01,1.409l-0.01.009-0.71.708-10-9.9,0.71-.707a1.021,1.021,0,0,1,1.431-.01v0Zm-25.547-16.8-0.72-2.123,2.14,0.707,13.413,13.267-1.431,1.413Zm12.692,18.216a1,1,0,0,1-.01-1.409l0.01-.01,5.712-5.656a1.02,1.02,0,0,1,.983-0.273,1,1,0,0,1,.721.715,0.984,0.984,0,0,1-.273.972l-5.712,5.657a1.021,1.021,0,0,1-1.431,0v0Zm7.853-3.535,1.431,1.419-3.572,3.536-0.71.708-1.431-1.419Zm10,15.556-10-9.9,1.431-1.419,10,9.9Zm13.74-43.358L598.63,567.448a5.116,5.116,0,0,0-4.282,0l-25.59,11.75a2.985,2.985,0,0,0-1.49,3.951c0,0.011.01,0.023,0.016,0.034a3.047,3.047,0,0,0,4.03,1.458L595.2,573.662a3.087,3.087,0,0,1,2.578,0l23.887,10.979a3.047,3.047,0,0,0,4.03-1.458,2.984,2.984,0,0,0-1.44-3.969l-0.034-.016v0.009Zm-0.361,3.142a0.994,0.994,0,0,1-.568.519,1.025,1.025,0,0,1-.775-0.033L598.63,571.857a5.129,5.129,0,0,0-4.281,0l-23.887,10.978a1.012,1.012,0,0,1-1.343-.486,0.981,0.981,0,0,1,.456-1.312l0.035-.016,25.59-11.759a3.072,3.072,0,0,1,2.578,0l25.591,11.759a0.982,0.982,0,0,1,.5,1.294c0,0.01-.009.02-0.014,0.03v0Z" transform="translate(-567 -566.969)" fill="#cf1d1d" fill-opacity="1" type="solidColor"></path>
</svg>