<svg xmlns="http://www.w3.org/2000/svg" width="64.468" height="62.6" viewBox="0 0 64.468 62.6">
  <defs>
    <style>
      .cls-1 {
        fill: #121212;
        fill-rule: evenodd;
      }
    </style>
  </defs>
  <path id="U1.svg" class="cls-1" d="M568.592,1276.99l-9,26.03a1.287,1.287,0,0,1-.449.61,9.256,9.256,0,0,1-8.728,6.24H517.438a11.24,11.24,0,0,1-9.051-17.91,0.43,0.43,0,0,1,.037-0.08l25.014-35.27c0.344-.54.71-1.05,1.1-1.55l0.871-1.23a1.137,1.137,0,0,1,.581-0.42,20.077,20.077,0,0,1,14.429-6.12,20.208,20.208,0,0,1,18.2,29.06A1.211,1.211,0,0,1,568.592,1276.99Zm-18.172,30.38a6.76,6.76,0,1,0-6.746-6.76A6.759,6.759,0,0,0,550.42,1307.37Zm-41.727-8.76a8.745,8.745,0,1,0,8.745-8.76A8.763,8.763,0,0,0,508.693,1298.61Zm5.7-10.83a10.926,10.926,0,0,1,3.041-.44,11.243,11.243,0,0,1,7.015,20.03h19.68a9.232,9.232,0,1,1,14.839-10.19l5.067-14.67a20.19,20.19,0,0,1-33.858-14.94,19.157,19.157,0,0,1,.156-2.27Zm36.023-37.98a17.687,17.687,0,0,0-13.661,6.45l-1.382,1.94A17.719,17.719,0,1,0,550.42,1249.8Zm0,32.04a14.27,14.27,0,1,1,14.242-14.27A14.271,14.271,0,0,1,550.42,1281.84Zm0-26.03a11.76,11.76,0,1,0,11.744,11.76A11.762,11.762,0,0,0,550.42,1255.81Zm8,9.51a2.25,2.25,0,1,1-2.249,2.25A2.252,2.252,0,0,1,558.416,1265.32Zm-8,6.51a4.26,4.26,0,1,1,4.248-4.26A4.258,4.258,0,0,1,550.42,1271.83Zm0-6.01a1.75,1.75,0,1,0,1.749,1.75A1.749,1.749,0,0,0,550.42,1265.82Zm0-4.01a2.25,2.25,0,1,1,2.249-2.25A2.253,2.253,0,0,1,550.42,1261.81Zm-8,8.01a2.25,2.25,0,1,1,2.249-2.25A2.252,2.252,0,0,1,542.424,1269.82Zm8,3.51a2.25,2.25,0,1,1-2.249,2.25A2.253,2.253,0,0,1,550.42,1273.33Zm-28.734,25.28a4.248,4.248,0,1,1-4.248-4.26A4.256,4.256,0,0,1,521.686,1298.61Zm-6,0a1.749,1.749,0,1,0,1.749-1.75A1.755,1.755,0,0,0,515.689,1298.61Zm34.731-.25a2.25,2.25,0,1,1-2.249,2.25A2.253,2.253,0,0,1,550.42,1298.36Z" transform="translate(-506.188 -1247.28)"/>
</svg>

