<svg xmlns="http://www.w3.org/2000/svg" width="55.5" height="64.59" viewBox="0 0 55.5 64.59">
  <defs>
    <style>
      .cls-1 {
        fill: #121212;
        fill-rule: evenodd;
      }
    </style>
  </defs>
  <path id="U5.svg" class="cls-1" d="M564,1677.46a9.22,9.22,0,0,1-7.065,3.29H519.918a9.259,9.259,0,0,1-9.113-10.82l4.408-25.86a8.222,8.222,0,0,1,8.128-6.87,1.289,1.289,0,0,1,1.3,1.25,1.214,1.214,0,0,1-1.2,1.25h-0.094a5.733,5.733,0,0,0-5.665,4.79l-4.408,25.86a6.756,6.756,0,0,0,6.65,7.9h37.017a6.758,6.758,0,0,0,6.651-7.9l-4.408-25.86a5.733,5.733,0,0,0-5.666-4.79,1.289,1.289,0,0,1-1.3-1.25,1.208,1.208,0,0,1,1.2-1.25,8.276,8.276,0,0,1,8.221,6.87l4.408,25.86A9.257,9.257,0,0,1,564,1677.46Zm-25.573-45.77a1.25,1.25,0,0,1-1.25-1.25v-2.76h-3.5v2.76a1.249,1.249,0,1,1-2.5,0v-7.01a1.249,1.249,0,1,1,2.5,0v1.75h3.5v-1.75a1.25,1.25,0,1,1,2.5,0v1.75h3.5v-1.75a1.25,1.25,0,1,1,2.5,0v3a1.251,1.251,0,0,1-1.25,1.25h-4.747v2.76A1.25,1.25,0,0,1,538.427,1631.69Zm-7.58,36.43a1.256,1.256,0,0,1,.765,1.6,1.256,1.256,0,0,1-1.179.84h0a1.461,1.461,0,0,1-.414-0.07,12.277,12.277,0,0,1-5.8-3.92,3.242,3.242,0,0,1-.056-3.87l1.9-2.66a14.8,14.8,0,0,0,2.633-6.75l0.059-.47a16.345,16.345,0,0,1,2.6-7,1.315,1.315,0,0,1,.841-0.57,1.288,1.288,0,0,1,.975.2h0.008v-3a1.25,1.25,0,1,1,2.5,0v4.93a0.562,0.562,0,0,1,.016.08,1.259,1.259,0,0,1-1.265,1.25,3.505,3.505,0,0,1-1.6-.51,13.826,13.826,0,0,0-1.6,4.93l-0.059.47a17.353,17.353,0,0,1-3.078,7.9l-1.9,2.66a0.735,0.735,0,0,0,0,.88A9.637,9.637,0,0,0,530.847,1668.12Zm12.827-28.87v6.17c0.109-.05.186-0.08,0.189-0.08a1.253,1.253,0,0,1,1.6.42,16.516,16.516,0,0,1,2.641,7.06l0.059,0.47a14.8,14.8,0,0,0,2.631,6.75l1.9,2.66a3.25,3.25,0,0,1-.081,3.9c-1.487,1.92-5.308,5.14-14.18,5.14a1.25,1.25,0,1,1,0-2.5c7.808,0,11-2.62,12.207-4.18a0.746,0.746,0,0,0,.021-0.9l-1.9-2.66a17.355,17.355,0,0,1-3.079-7.9l-0.058-.47a14.007,14.007,0,0,0-1.712-5.13,14.218,14.218,0,0,1-4.484.71,1.25,1.25,0,0,1,0-2.5,11.458,11.458,0,0,0,1.749-.14v-6.46a1.228,1.228,0,0,1-.994-1.1,1.246,1.246,0,0,1,1.132-1.35,9.707,9.707,0,0,0,8.857-9.73v-2a6.76,6.76,0,0,0-6.746-6.76h-10a6.759,6.759,0,0,0-6.746,6.76v2a9.708,9.708,0,0,0,8.857,9.73,1.25,1.25,0,0,1-.223,2.49,12.193,12.193,0,0,1-11.133-12.22v-2a9.261,9.261,0,0,1,9.245-9.26h10a9.26,9.26,0,0,1,9.245,9.26v2A12.185,12.185,0,0,1,543.674,1639.25Z" transform="translate(-510.688 -1616.16)"/>
</svg>

