<svg width="23" height="23" viewBox="0 0 23 23" fill="none" xmlns="http://www.w3.org/2000/svg">
<path d="M18.7507 3.78931C16.7048 1.73853 13.9802 0.610596 11.0847 0.610596C5.10817 0.610596 0.244888 5.47388 0.244888 11.4504C0.244888 13.3596 0.742935 15.2249 1.6902 16.8704L0.152115 22.4856L5.89919 20.9768C7.48122 21.8411 9.26344 22.2952 11.0798 22.2952H11.0847C17.0564 22.2952 22.0271 17.4319 22.0271 11.4553C22.0271 8.55981 20.7966 5.84009 18.7507 3.78931ZM11.0847 20.469C9.46364 20.469 7.87672 20.0344 6.49489 19.2141L6.16774 19.0188L2.75954 19.9124L3.66774 16.5872L3.4529 16.2454C2.54958 14.8098 2.07594 13.1545 2.07594 11.4504C2.07594 6.48462 6.11891 2.44165 11.0896 2.44165C13.4968 2.44165 15.7576 3.37915 17.4568 5.08325C19.156 6.78735 20.2009 9.0481 20.1961 11.4553C20.1961 16.426 16.0506 20.469 11.0847 20.469ZM16.0261 13.7209C15.7576 13.5842 14.4246 12.9299 14.1756 12.842C13.9265 12.7493 13.7459 12.7053 13.5652 12.9788C13.3845 13.2522 12.867 13.8577 12.7058 14.0432C12.5496 14.2239 12.3884 14.2483 12.1199 14.1116C10.5281 13.3157 9.48317 12.6907 8.43337 10.8889C8.15504 10.4104 8.71168 10.4446 9.22926 9.40942C9.31715 9.22876 9.27321 9.07251 9.20485 8.93579C9.13649 8.79907 8.5945 7.46606 8.36989 6.92407C8.15016 6.39673 7.92555 6.46997 7.75954 6.46021C7.60329 6.45044 7.42262 6.45044 7.24196 6.45044C7.06129 6.45044 6.76833 6.5188 6.5193 6.78735C6.27028 7.06079 5.57204 7.71509 5.57204 9.0481C5.57204 10.3811 6.54372 11.6702 6.67555 11.8508C6.81227 12.0315 8.58473 14.7659 11.3045 15.9426C13.0232 16.6848 13.697 16.7483 14.5564 16.6213C15.0789 16.5432 16.158 15.967 16.3826 15.3323C16.6072 14.6975 16.6072 14.1555 16.5388 14.0432C16.4754 13.9211 16.2947 13.8528 16.0261 13.7209Z" fill="#727271"/>
</svg>
